<!-- Generator: Adobe Illustrator 19.2.0, SVG Export Plug-In  -->
<svg version="1.1"
	 xmlns="http://www.w3.org/2000/svg" xmlns:xlink="http://www.w3.org/1999/xlink" xmlns:a="http://ns.adobe.com/AdobeSVGViewerExtensions/3.0/"
	 x="0px" y="0px" width="25.83px" height="66.965px" viewBox="0 0 25.83 66.965" style="enable-background:new 0 0 25.83 66.965;"
	 xml:space="preserve">
<style type="text/css">
	.st0{fill:#186DAC;}
	.st1{fill:#FFFFFF;}
	.st2{fill:#231F20;}
</style>
<defs>
</defs>
<g>
	<rect x="1.013" y="0" class="st0" width="24.264" height="23.27"/>
	<rect x="1.013" y="24.146" class="st0" width="11.59" height="11.588"/>
	<rect x="13.681" y="24.146" class="st0" width="11.59" height="11.588"/>
	<rect x="1.013" y="36.692" class="st0" width="11.59" height="11.593"/>
	<rect x="13.681" y="36.692" class="st0" width="11.59" height="11.593"/>
	<path class="st1" d="M16.119,46.746c0.565,0.077,1.213,0.106,2.02,0.106c1.655,0,2.974-0.433,3.781-1.234
		c0.783-0.785,1.231-1.922,1.231-3.307c0-1.387-0.448-2.381-1.213-3.089c-0.748-0.686-1.879-1.041-3.469-1.041
		c-0.866,0-1.661,0.068-2.35,0.171V46.746z M17.232,39.174c0.294-0.074,0.724-0.124,1.301-0.124c2.326,0,3.463,1.252,3.457,3.298
		c0,2.307-1.284,3.623-3.639,3.623c-0.43,0-0.836,0-1.119-0.056V39.174z"/>
	<path class="st1" d="M4.871,38.182v5.063c0,1.905,0.842,2.716,1.985,2.716c1.254,0,2.079-0.838,2.079-2.716v-5.063h1.113v4.988
		c0,2.633-1.378,3.691-3.233,3.691c-1.743,0-3.062-0.985-3.062-3.642v-5.037H4.871z"/>
	<path class="st1" d="M16.425,34.093v-8.538h1.213l2.727,4.316c0.618,1.003,1.131,1.886,1.519,2.772l0.036-0.013
		c-0.1-1.135-0.118-2.169-0.118-3.492v-3.582h1.042v8.538h-1.131l-2.703-4.333c-0.589-0.948-1.16-1.927-1.578-2.853l-0.041,0.015
		c0.065,1.079,0.077,2.104,0.077,3.525v3.647H16.425z"/>
	<path class="st1" d="M4.27,34.146h1.107V30.72c0.248,0.063,0.548,0.074,0.878,0.074c1.078,0,2.026-0.308,2.609-0.93
		c0.447-0.448,0.677-1.051,0.677-1.823c0-0.763-0.295-1.381-0.76-1.787c-0.512-0.461-1.301-0.713-2.391-0.713
		c-0.895,0-1.596,0.079-2.12,0.182V34.146z M5.377,26.503c0.188-0.038,0.548-0.088,1.031-0.088c1.225,0,2.014,0.545,2.014,1.687
		c0,1.151-0.789,1.806-2.138,1.806c-0.359,0-0.665-0.022-0.907-0.085V26.503z"/>
	<path class="st1" d="M19.7,16.765c-0.583,0.162-1.213,0.208-1.784,0.405c0.966-0.83,0.907-2.116,1.549-3.086
		c0.212-0.28,0.377-0.567,0.618-0.827c-0.395,0.785-0.218,1.804-0.672,2.566c-0.177,0.306-0.424,0.595-0.701,0.839l0.253-0.134
		c0.73-0.733,1.684-0.931,2.479-1.53c0.312-0.25,0.612-0.582,0.742-0.941C22.032,15.268,20.83,16.403,19.7,16.765"/>
	<path class="st1" d="M22.332,11.863c-0.359,0.508-0.789,0.982-1.113,1.503c0.024-0.408,0.083-0.913-0.082-1.306
		c-0.277-0.833-0.512-1.682-0.601-2.597l0.006-0.353c0.212,0.94,1.137,1.58,1.078,2.628c0.017,0.258-0.059,0.474-0.1,0.7
		l0.006,0.016l0.047-0.049c0.136-0.521,0.2-1.059,0.412-1.537c0.312-0.692,0.689-1.391,0.53-2.229
		C22.974,9.628,22.845,10.944,22.332,11.863"/>
	<path class="st1" d="M21.773,6.555c0.595,0.821,0.73,2.117,0.295,3.065c-0.165,0.39-0.283,0.817-0.353,1.256l-0.053-0.267
		c-0.247-0.913-1.119-1.568-1.472-2.437c-0.112-0.286-0.206-0.573-0.265-0.88c0.383,0.704,1.319,1.072,1.578,1.846
		c0.106,0.196,0.106,0.439,0.165,0.66l0.035-0.027c-0.124-0.801-0.094-1.645,0.024-2.429c-0.012-0.434-0.047-0.854-0.283-1.181
		C21.596,6.247,21.667,6.42,21.773,6.555"/>
	<path class="st1" d="M21.337,6.403c0.165,0.713-0.071,1.408,0.077,2.133l-0.006,0.006c-0.383-0.764-1.207-1.127-1.778-1.743
		c-0.336-0.361-0.477-0.808-0.559-1.279c0.324,0.791,1.207,0.963,1.714,1.623c0.171,0.157,0.218,0.368,0.33,0.537l0.024-0.013
		c-0.289-0.62-0.395-1.316-0.601-1.979c-0.106-0.29-0.295-0.57-0.565-0.751C20.624,5.068,21.207,5.767,21.337,6.403"/>
	<path class="st1" d="M19.57,4.757c0.501,0.439,0.724,1.02,0.871,1.625l0.088,0.191c-0.736-0.524-1.384-1.229-1.855-1.964
		l-0.571-0.574C18.604,4.251,19.146,4.372,19.57,4.757"/>
	<path class="st1" d="M8.127,4.132C7.609,4.57,7.261,5.127,6.891,5.645C6.561,6.06,6.137,6.331,5.754,6.683
		c0.218-0.421,0.218-0.929,0.501-1.315C6.673,4.648,7.432,4.399,8.127,4.132"/>
	<path class="st1" d="M5.377,5.661c0.242-0.3,0.548-0.514,0.901-0.604C5.595,5.52,5.642,6.356,5.424,7.045
		C5.359,7.3,5.242,7.54,5.183,7.798L5.2,7.814c0.112-0.301,0.306-0.574,0.554-0.82c0.477-0.442,1.196-0.716,1.437-1.372
		c-0.03,0.907-0.783,1.626-1.508,2.133c-0.3,0.271-0.589,0.57-0.754,0.904C4.912,8.43,4.965,8.2,4.947,7.949
		C4.865,7.157,4.818,6.247,5.377,5.661"/>
	<path class="st1" d="M4.005,8.378C3.981,7.577,4.323,6.92,4.782,6.321l0.047-0.019C4.311,7.086,4.741,8.077,4.717,8.975
		L4.653,9.891l0.035,0.027C4.711,9.816,4.723,9.71,4.741,9.595c0.124-0.739,0.766-1.257,1.325-1.777
		c0.118-0.127,0.229-0.265,0.289-0.419C6.307,7.764,6.19,8.141,6.042,8.479c-0.441,0.842-1.254,1.55-1.39,2.524
		C4.576,10.069,3.94,9.373,4.005,8.378"/>
	<path class="st1" d="M3.61,9.524c0.059-0.25,0.106-0.511,0.212-0.742c-0.2,1.063,0.507,1.83,0.748,2.753
		c0.1,0.346,0.118,0.713,0.259,1.035l0.035-0.012c-0.347-0.981,0.147-1.889,0.654-2.66c0.13-0.206,0.2-0.436,0.265-0.675
		c0.047,0.44-0.059,0.951-0.118,1.415c-0.135,0.587-0.312,1.138-0.471,1.708c-0.106,0.356-0.077,0.758-0.03,1.131l-0.047-0.04
		c-0.377-0.686-1.113-1.225-1.331-1.971C3.61,10.87,3.492,10.175,3.61,9.524"/>
	<path class="st1" d="M3.575,11.602c0.082,1.131,1.301,1.727,1.855,2.657c0.141,0.198,0.253,0.406,0.436,0.567
		C5.83,14.707,5.73,14.603,5.683,14.48c-0.2-0.392-0.271-0.857-0.224-1.332c0.059-0.577,0.294-1.112,0.212-1.718
		c0.489,1.069,0.342,2.397,0.612,3.554c0.071,0.249,0.218,0.472,0.306,0.716c-1.013-0.692-2.391-1.344-2.845-2.613
		C3.557,12.647,3.54,12.104,3.575,11.602"/>
	<path class="st1" d="M4.187,14.193c0.56,1.282,1.979,1.394,2.933,2.17c0.177,0.152,0.359,0.286,0.554,0.378l0.012-0.013
		c-0.218-0.194-0.471-0.42-0.624-0.676c-0.559-0.775-0.359-1.86-0.777-2.687c0.383,0.449,0.725,0.917,0.954,1.434
		c0.336,0.838,0.465,1.79,1.26,2.424c-0.86-0.28-1.855-0.199-2.603-0.723C5.071,15.991,4.341,15.134,4.187,14.193"/>
	<path class="st1" d="M5.642,16.584c0.895,1.035,2.385,0.692,3.604,0.956c0.159,0.03,0.324,0.091,0.513,0.066
		c-0.159-0.087-0.359-0.082-0.507-0.168c-0.96-0.327-1.089-1.356-1.602-2.048c0.648,0.436,1.207,1.028,1.808,1.593
		c0.436,0.389,0.972,0.562,1.513,0.674c-0.13,0.053-0.306,0.04-0.447,0.068c-0.995,0.25-2.091,0.658-3.157,0.289
		C6.69,17.803,5.978,17.263,5.642,16.584"/>
	<path class="st1" d="M17.956,18.993c-1.013,0.38-2.079-0.019-2.88-0.623c-0.33-0.21-0.612-0.506-1.036-0.477
		c-0.141,0-0.289,0.006-0.418,0.046c0.772,0.356,1.502,0.854,2.156,1.496c-0.112,0.122-0.253,0.241-0.395,0.35
		c-0.636-0.686-1.343-1.342-2.126-1.727c-0.159,0.019-0.294,0.112-0.436,0.19c-0.642,0.402-1.278,0.926-1.755,1.561l-0.401-0.334
		c0.642-0.662,1.372-1.179,2.156-1.546c-0.777-0.247-1.278,0.402-1.879,0.736c-0.677,0.48-1.672,0.708-2.503,0.375
		c-0.448-0.169-0.878-0.42-1.202-0.83c0.654,0.455,1.626,0.501,2.368,0.21c1.001-0.436,2.038-0.979,3.239-0.721
		c0.188,0,0.377,0.194,0.548,0.027c0.895-0.231,1.914-0.066,2.674,0.341l0.801,0.317c0.742,0.274,1.69,0.202,2.326-0.247
		C18.863,18.538,18.416,18.828,17.956,18.993"/>
	<path class="st1" d="M19.058,17.939c-1.148,0.431-2.302-0.103-3.41-0.28l-0.2-0.027v-0.005c0.524-0.124,1.031-0.28,1.455-0.658
		c0.612-0.593,1.16-1.204,1.843-1.671c-0.501,0.652-0.565,1.581-1.402,2.002c-0.206,0.137-0.471,0.153-0.677,0.259
		c0.306,0.009,0.583-0.106,0.889-0.13c1.125-0.181,2.42,0,3.198-0.956C20.459,17.144,19.729,17.702,19.058,17.939"/>
	<path class="st1" d="M21.143,14.704c-0.448,0.292-0.901,0.571-1.349,0.907v-0.037c0.677-1.113,0.347-2.64,0.748-3.86l0.165-0.405
		c-0.082,0.758,0.248,1.408,0.212,2.169c-0.024,0.455-0.165,0.864-0.4,1.237h0.024c0.336-0.428,0.595-0.888,0.978-1.296
		c0.589-0.574,1.184-1.163,1.272-1.952C22.986,12.79,22.25,13.953,21.143,14.704"/>
	<path class="st1" d="M19.676,10.564c-0.059,1.599-0.665,2.974-1.702,4.164l-0.035,0.053c-0.206-0.234-0.495-0.545-0.754-0.752
		c0.153-0.099,0.277-0.29,0.4-0.437c0.648-0.888,1.031-1.891,1.078-3.027l-0.03-0.093l0.059,0.04l0.972-0.006l0.047-0.024
		L19.676,10.564z M13.422,16.811l-0.082,0.049c0.029-0.349,0.029-0.73,0-1.075c0.182,0.053,0.359-0.009,0.542-0.009l0.524-0.091
		c0.259,0.044,0.442,0.471,0.724,0.213c0.106-0.116,0.277-0.109,0.342-0.268c0.171-0.062,0.2-0.24,0.318-0.339
		c0.112-0.327,0.477-0.372,0.706-0.599c0.159-0.14,0.359-0.259,0.465-0.446l0.012,0.085l0.725,0.686
		C16.478,16.119,15.053,16.742,13.422,16.811 M13.41,14.632c0.118,0.049,0.336-0.053,0.395,0.09l-0.065,0.243
		c0.047,0.128,0.124,0.296,0.277,0.303l0.153,0.09c-0.271,0.046-0.571,0.032-0.83,0.115c0.041-0.274,0-0.56,0-0.841l-0.041-0.075
		L13.41,14.632z M13.145,12.905l-0.188-0.027l-0.035-0.059l0.253-0.097l0.153-0.18l0.112-0.077l0.118-0.043
		c0.059,0.104,0.206,0.062,0.265,0.178l0.041-0.047v-0.043c0.118-0.008,0.171,0.146,0.283,0.043v-0.102l-0.024-0.029l0.212,0.062
		l0.242-0.144l0.024,0.03c0.012,0.202-0.147,0.333-0.312,0.422c-0.094,0.041-0.277,0.025-0.271,0.181
		c-0.106,0.107-0.212-0.058-0.348-0.013l-0.094-0.146C13.422,12.876,13.257,12.737,13.145,12.905 M12.326,16.765
		c-1.378-0.182-2.574-0.782-3.634-1.698l0.707-0.71v-0.04c0.984,0.939,2.156,1.405,3.475,1.497l0.118-0.027l-0.035,0.049v0.928
		l0.047,0.082C12.792,16.785,12.544,16.804,12.326,16.765 M7.521,13.538c-0.495-0.914-0.777-1.907-0.83-2.998l0.942,0.011
		l0.094-0.04l-0.006,0.194l-0.012-0.01l0.017,0.053c0.018,0.361,0.077,0.699,0.171,1.038l0.041,0.071l-0.153-0.215l-0.218,0.082
		l-0.1,0.099l-0.077-0.063l-0.177,0.083l-0.077,0.113c-0.012,0.152-0.059,0.352,0.053,0.482l0.13,0.286l0.082-0.03
		c0.088,0.063,0.135,0.234,0.271,0.202l0.047-0.087c0.071,0.068,0.106,0.218,0.242,0.202l0.1,0.096
		c0.141-0.032,0.094,0.168,0.2,0.224c0.082,0.056,0.129,0.175,0.247,0.116l0.041-0.05l0.029,0.135l0.289,0.211
		c0.094,0.116,0.206,0.25,0.324,0.333l-0.083,0.031L8.434,14.81C8.121,14.392,7.768,13.983,7.521,13.538 M6.737,9.548
		c0.177-1.407,0.772-2.641,1.749-3.722l0.024,0.09C8.734,6.147,8.964,6.39,9.193,6.595c-0.2,0.131-0.306,0.349-0.46,0.527
		c-0.607,0.86-0.954,1.836-1.025,2.921l0.024,0.125c-0.336-0.024-0.707-0.024-1.054,0C6.72,9.968,6.696,9.75,6.737,9.548
		 M9.27,5.128c1.078-0.779,2.297-1.241,3.675-1.296l-0.03,0.094l0.006,0.819l0.035,0.078c-1.337,0.06-2.485,0.561-3.492,1.465
		L9.452,6.34c-0.23-0.243-0.489-0.53-0.76-0.729H8.675C8.881,5.493,9.064,5.27,9.27,5.128 M12.968,7.543
		c-0.177-0.038-0.353,0.041-0.524,0.06c-0.371,0.099-0.707,0.306-1.037,0.538l-0.053,0.072c-0.242-0.208-0.471-0.493-0.73-0.673
		c0.671-0.546,1.419-0.907,2.291-0.966l0.053-0.038C12.921,6.869,12.921,7.222,12.968,7.543 M12.703,8.649L12.68,8.513
		c-0.147,0.08-0.1,0.25-0.206,0.362l-0.188,0.096l-0.177-0.026l-0.183-0.083l-0.077,0.071l-0.053-0.041l0.053-0.109l-0.277-0.174
		h-0.071c0.4-0.425,0.907-0.617,1.455-0.683c-0.012,0.235-0.035,0.515,0.047,0.739L12.703,8.649z M11.749,11.43l0.135-0.224
		l0.106,0.056l-0.242,0.169V11.43z M12.845,12.449l-0.035,0.284c-0.454-0.078-0.866-0.267-1.225-0.564
		c0.2-0.221,0.483-0.445,0.624-0.679l0.235,0.21c0.194,0.085,0.412,0.208,0.607,0.119l-0.041,0.043l0.024,0.171l-0.041,0.074
		l0.088,0.191l-0.047,0.091L12.845,12.449z M10.736,8.774l-0.23,0.237l-0.247,0.133l-0.012,0.118C10.171,9.334,10,9.239,9.971,9.386
		C9.953,9.51,9.806,9.581,9.812,9.719L9.753,9.971l0.059,0.19c-0.124-0.016-0.306-0.041-0.424,0.021
		c0.065-0.157,0.041-0.349,0.077-0.511c0.13-0.705,0.447-1.325,0.919-1.889c0.235,0.234,0.489,0.504,0.766,0.705
		C10.942,8.494,10.942,8.78,10.736,8.774 M10.265,12.808l-0.035-0.213c-0.194-0.175-0.13-0.476-0.165-0.695
		c-0.135-0.109-0.029-0.29-0.118-0.409c0-0.202-0.306-0.264-0.212-0.485l-0.041-0.191l0.235-0.103l0.024-0.181l0.212-0.049
		c0.065-0.168-0.253-0.375,0.018-0.465c0.094-0.009,0.224-0.029,0.265,0.085c0.024,0.122,0.053,0.264,0.006,0.393v0.175
		l-0.177,0.059l-0.129-0.116l0.017,0.228l-0.041,0.144l-0.077-0.027l-0.012,0.13l0.182,0.096l0.03-0.043l0.041-0.3l0.112,0.053
		c0.082,0.426,0.265,0.807,0.518,1.166l0.13,0.129c-0.312,0.271-0.618,0.59-0.877,0.894v0.003l-0.053-0.043
		C10.083,12.914,10.306,12.951,10.265,12.808 M12.438,14.003l0.165,0.081c-0.589-0.149-1.225-0.352-1.743-0.78l-0.247-0.169
		c0.235-0.197,0.471-0.454,0.671-0.698c0.094,0.165,0.283,0.253,0.424,0.362c0.265,0.118,0.53,0.336,0.83,0.277l-0.253,0.162
		c-0.041,0.091-0.024,0.231-0.153,0.271C12.144,13.703,12.315,13.874,12.438,14.003 M11.425,11.346l0.082,0.046v-0.172l0.065,0.234
		l0.035,0.132c-0.1,0.115-0.229,0.215-0.289,0.339c-0.059-0.157-0.206-0.283-0.259-0.434c-0.094-0.175-0.153-0.375-0.247-0.558
		c0.082,0.106,0.3-0.015,0.3,0.183l0.047,0.006l0.071-0.019l0.036,0.091L11.425,11.346z M12.956,6.206
		c-0.182-0.04-0.359,0.024-0.542,0.041c-0.76,0.156-1.466,0.479-2.05,1.034l-0.017-0.059c-0.23-0.212-0.436-0.483-0.695-0.638
		c0.224-0.138,0.412-0.327,0.624-0.471c0.795-0.535,1.684-0.832,2.668-0.891C12.915,5.54,12.945,5.879,12.956,6.206 M9.093,10.181
		l-0.1-0.037l-0.931,0.016C8.151,9.12,8.44,8.161,9.046,7.329l0.353-0.468l0.006-0.062c0.229,0.256,0.471,0.495,0.73,0.719
		c-0.677,0.724-1.019,1.591-1.09,2.562L9.093,10.181z M8.392,11.759L8.28,11.924c0.012-0.24-0.1-0.471-0.124-0.714L8.08,10.58
		l-0.041-0.059c0.3,0.049,0.636,0.019,0.948,0.03l0.071-0.04c-0.029,0.152-0.035,0.375,0.083,0.498L8.958,10.86
		c-0.171,0.013-0.194,0.239-0.365,0.242c-0.141,0.125-0.159,0.29-0.194,0.452L8.392,11.759z M9.429,10.58L9.37,10.495
		c0.106,0.08,0.212,0.059,0.33,0.035c-0.177,0.056-0.106,0.264-0.177,0.383l0.071,0.143l-0.13,0.19
		C9.523,11.026,9.429,10.805,9.429,10.58 M12.992,15.496l-0.094-0.06c-1.26-0.072-2.35-0.59-3.304-1.418
		c0.159-0.016,0.218,0.188,0.383,0.138c0.188-0.025,0.33-0.171,0.524-0.138l0.271-0.088l-0.106-0.242
		c0.654,0.483,1.378,0.786,2.209,0.824l0.082-0.035v0.902L12.992,15.496z M13.145,9.179l0.059,0.024l-0.212,0.013v0.119
		c0.13,0.052,0.153,0.251,0.318,0.175l0.171,0.107c0.1,0.034,0.118,0.205,0.259,0.169l0.047,0.23l-0.094,0.152l-0.018,0.087
		c0.13,0.012,0.124,0.158,0.182,0.233l0.088,0.261c-0.012,0.116-0.065,0.21-0.124,0.314c-0.129,0.069-0.342-0.102-0.389,0.144
		c-0.082,0.079-0.012,0.261-0.165,0.262c-0.277,0.027-0.542-0.037-0.736-0.199c0.13-0.076,0.365,0.024,0.412-0.181l0.035-0.13
		l0.124-0.23l-0.017-0.141c-0.141-0.143-0.33-0.068-0.507-0.066l-0.077,0.256c-0.129,0.016-0.135,0.149-0.242,0.228l-0.082-0.156
		h0.012l0.035,0.06c0.13,0.019,0.088-0.131,0.13-0.194c0.03-0.077,0.212-0.194,0.059-0.248l-0.029-0.103l-0.124,0.093l-0.053,0.165
		h-0.03l-0.053-0.083l-0.212,0.04l-0.347,0.049l0.1-0.107l0.1-0.239l0.112-0.003l0.094,0.043l0.024-0.062
		c0.112,0.062,0.047,0.353,0.247,0.227c0.041-0.125,0.006-0.274,0.065-0.386c-0.047-0.115,0.077-0.16,0.106-0.234
		c0.118,0.013,0.088-0.109,0.141-0.16c0.159-0.05,0.33-0.085,0.436-0.258l-0.077-0.271H13.145z M13.722,5.243
		c0.595,0.075,1.125,0.237,1.661,0.477c0.071,0.119,0.23,0.178,0.253,0.327c-0.083,0.21,0.265,0.2,0.1,0.418l0.088,0.156
		l0.053,0.178c0.118,0.025,0.177-0.132,0.3-0.093c0.159,0.118,0.194,0.306,0.194,0.484c0.024,0.115,0.118,0.188,0.206,0.225
		c0.206-0.056,0.106,0.168,0.247,0.224c0.165,0.022,0.235,0.221,0.406,0.206c0.159,0.113,0.235,0.289,0.377,0.417l0.047,0.072
		l0.2-0.043c0.253,0.535,0.395,1.134,0.442,1.761l0.035,0.063c-0.336,0-0.665,0.003-1.001,0.028c-0.006-0.197,0-0.396-0.106-0.551
		c0.053-0.11,0.065-0.24,0.053-0.358h-0.077c-0.112,0.108-0.124,0.25-0.188,0.381c-0.094,0.131-0.106,0.33-0.047,0.484l0.035,0.034
		l-0.383-0.005l0.012-0.264l0.177-0.035c0.059-0.125,0.194-0.215,0.194-0.367c0.077-0.096,0.13-0.207,0.088-0.336
		c-0.088-0.185,0.135-0.374-0.03-0.554l-0.088-0.124L16.855,8.38l0.094-0.174L16.796,8.2c-0.017-0.078,0.141-0.171,0-0.25
		l-0.235,0.066l-0.024-0.143l-0.206-0.259l-0.094-0.029c0.024-0.205-0.224-0.311-0.242-0.515l-0.112-0.25l-0.188-0.059
		c-0.082-0.119-0.182-0.244-0.294-0.353L15.312,6.44l0.135,0.256l-0.041,0.011l0.147,0.247c-0.53-0.412-1.16-0.627-1.831-0.736
		c-0.13,0-0.253-0.056-0.394-0.012c0.035-0.297,0.012-0.636,0.012-0.951l-0.024-0.068C13.44,5.256,13.581,5.226,13.722,5.243
		 M13.987,3.881c1.361,0.184,2.585,0.726,3.616,1.711L17.491,5.64c-0.194,0.199-0.406,0.367-0.518,0.592l-0.141-0.169
		c-0.024-0.184-0.2-0.362-0.359-0.458c-0.135-0.027-0.165-0.227-0.33-0.165c-0.13-0.115-0.306-0.026-0.436,0.033v0.021
		c-0.654-0.372-1.372-0.598-2.15-0.659l-0.1,0.027l0.012-0.158l-0.106-0.047l-0.035,0.08c0.024-0.301,0.035-0.67-0.006-0.94
		C13.528,3.859,13.769,3.844,13.987,3.881 M14.623,12.666c0.306,0.031,0.583,0.09,0.854,0.196l0.188-0.055
		c-0.024-0.115,0.112-0.168,0.106-0.28l0.094-0.306c0.012-0.125,0-0.256-0.083-0.349l-0.212,0.027
		c-0.077,0.065-0.047,0.243-0.188,0.208l-0.147,0.035l-0.03-0.052c0.1-0.044,0.277-0.013,0.3-0.172l0.259-0.118l0.153-0.234
		l0.006-0.1l0.088,0.135l0.147-0.09l0.047-0.044l0.3,0.022l0.271-0.049c-0.088,0.378-0.277,0.727-0.495,1.054l-0.271,0.319
		l-0.088-0.258l-0.041,0.013c-0.053,0.109-0.159,0.196-0.147,0.324c-0.088,0.134-0.289,0.022-0.4,0.088
		c-0.153,0.047-0.236-0.096-0.353-0.128c-0.13-0.05-0.271-0.056-0.406-0.122L14.623,12.666z M15.554,7.613
		c-0.171,0.208-0.406,0.392-0.559,0.604l-0.024-0.063c-0.448-0.369-0.96-0.545-1.531-0.63l-0.1,0.019l0.012-0.922l-0.03-0.079
		c0.371,0.056,0.754,0.109,1.089,0.237c0.448,0.157,0.872,0.393,1.231,0.708l0.083,0.031L15.554,7.613z M16.985,10.511
		c-0.065,0.185-0.059,0.399-0.106,0.587l-0.03,0.094c-0.053-0.115-0.112-0.267-0.235-0.333c-0.118-0.066-0.053-0.213-0.153-0.287
		l-0.094-0.105C16.543,10.543,16.779,10.521,16.985,10.511 M16.384,8.707c0.112,0.024,0.177,0.155,0.289,0.184
		c0.106,0.156,0.147,0.334,0.194,0.512c-0.088,0.105-0.106,0.33-0.306,0.293l0.071-0.277l0.094-0.096l-0.165-0.185l-0.147-0.072
		c-0.13-0.062-0.253,0.258-0.295,0.01l0.041-0.132c-0.118-0.065-0.135-0.216-0.242-0.28c-0.182,0.003-0.324-0.072-0.495-0.035
		l-0.3,0.019l-0.071,0.243l-0.094-0.105c0.3-0.334,0.642-0.665,0.966-0.992l0.006-0.049c0.159,0.194,0.348,0.395,0.465,0.605
		C16.419,8.487,16.172,8.622,16.384,8.707 M14.452,11.972c0,0.119-0.182,0.119-0.259,0.207v-0.093
		C14.27,12.022,14.334,11.955,14.452,11.972 M14.17,9.143l-0.177,0.04l-0.23-0.156l-0.183,0.05c0.118-0.13,0.336-0.156,0.43-0.333
		l0.041-0.28L13.917,8.43c-0.059,0.109-0.224,0.133-0.289,0.253l-0.253-0.081c-0.035-0.223,0.017-0.515-0.047-0.713
		c0.141,0.05,0.277,0.056,0.424,0.086c0.336,0.093,0.654,0.253,0.966,0.444l-0.206,0.162L14.6,8.665l0.065-0.027
		C14.564,8.906,14.199,8.867,14.17,9.143 M16.072,14.433c-0.177-0.158,0.106-0.302,0.159-0.45c-0.024-0.155-0.212-0.245-0.336-0.295
		l-0.047-0.171l0.147-0.198l0.018,0.069l0.43,0.434l0.106,0.225l0.141-0.007h-0.018c-0.177,0.199-0.406,0.35-0.606,0.508
		l-0.053,0.066L16.072,14.433z M16.873,13.448c-0.088-0.078-0.088-0.24-0.241-0.237l-0.071,0.085l-0.012,0.069l-0.312-0.28
		c0.159-0.069,0.259-0.268,0.377-0.415c0.289-0.396,0.447-0.845,0.595-1.3l0.159,0.013l0.024-0.157l-0.112-0.125
		c0.012-0.202,0.065-0.405,0.053-0.614l0.071,0.024c0.318-0.006,0.636,0.019,0.942-0.016l-0.047,0.062
		c-0.077,1.229-0.507,2.338-1.361,3.245C16.967,13.682,16.855,13.587,16.873,13.448 M19.647,9.763c0.017,0.118,0,0.253,0.059,0.346
		l-0.989,0.022l-0.071,0.03l0.018-0.044c-0.006-0.769-0.218-1.458-0.512-2.114c-0.012-0.29-0.295-0.489-0.418-0.745
		c-0.218-0.149-0.277-0.415-0.53-0.551l-0.141-0.152l0.112-0.027c0.242-0.24,0.495-0.474,0.683-0.726
		C18.875,6.951,19.523,8.25,19.647,9.763 M19.329,7.359c-1.119-2.384-3.569-3.89-6.149-3.897c-1.119,0.024-2.155,0.271-3.098,0.739
		C8.398,5.001,7.026,6.742,6.567,8.465c-0.754,2.906,0.265,5.848,2.768,7.562c1.779,1.282,4.647,1.53,6.655,0.54
		c1.784-0.751,3.327-2.591,3.798-4.414C20.241,10.604,20.041,8.724,19.329,7.359"/>
	<path class="st1" d="M16.207,5.211l0.024,0.099c0.141,0.055,0.159,0.259,0.336,0.213l-0.018-0.202l-0.153-0.125L16.207,5.211z"/>
	<path class="st1" d="M13.487,4.632c0.177,0.234,0.483,0.1,0.707,0.057c0.171,0.069,0.33-0.013,0.447-0.116V4.548
		c-0.118-0.165-0.336-0.188-0.536-0.201L13.622,4.56l-0.153,0.013L13.487,4.632z"/>
	<path class="st2" d="M5.995,53.285l-0.13-0.917c-0.006-0.169-0.029-0.399-0.047-0.583H5.813c-0.094,0.184-0.171,0.381-0.271,0.573
		l-0.454,0.928H5.995z M4.929,53.591l-0.501,1.004H4.022l1.637-3.174h0.454l0.447,3.174h-0.4l-0.13-1.004H4.929z"/>
	<polygon class="st2" points="7.409,51.25 6.779,54.597 7.167,54.597 7.803,51.25 	"/>
	<path class="st2" d="M8.404,54.108c0.165,0.113,0.406,0.202,0.672,0.202c0.359,0,0.689-0.212,0.689-0.593
		c0-0.242-0.141-0.42-0.477-0.593c-0.394-0.231-0.618-0.479-0.618-0.821c0-0.564,0.489-0.926,1.072-0.926
		c0.312,0,0.536,0.083,0.648,0.161l-0.147,0.327C10.147,51.793,9.947,51.7,9.7,51.708c-0.389,0-0.63,0.258-0.63,0.517
		c0,0.254,0.159,0.412,0.489,0.592c0.389,0.21,0.606,0.461,0.606,0.852c0,0.542-0.424,0.976-1.142,0.976
		c-0.324,0-0.63-0.106-0.771-0.213L8.404,54.108z"/>
	<path class="st2" d="M11.944,52.865c0-0.191-0.135-0.287-0.342-0.287c-0.371,0-0.654,0.362-0.748,0.716
		C11.467,53.294,11.944,53.219,11.944,52.865 M12.038,54.461c-0.165,0.107-0.447,0.181-0.76,0.181c-0.607,0-0.866-0.402-0.866-0.917
		c0-0.689,0.506-1.463,1.243-1.463c0.442,0,0.671,0.261,0.671,0.581c0,0.613-0.671,0.76-1.519,0.748
		c-0.017,0.096-0.006,0.317,0.047,0.431c0.083,0.218,0.277,0.316,0.513,0.316c0.265,0,0.471-0.088,0.618-0.165L12.038,54.461z"/>
	<path class="st2" d="M12.344,54.595l0.265-1.472c0.065-0.287,0.094-0.593,0.118-0.814h0.348c-0.018,0.165-0.035,0.325-0.065,0.511
		h0.024c0.141-0.316,0.389-0.555,0.689-0.555l0.118,0.007l-0.083,0.383h-0.106c-0.336,0-0.636,0.412-0.73,0.937l-0.194,1.004H12.344
		z"/>
	<path class="st2" d="M14.282,52.309l0.194,1.312c0.035,0.256,0.077,0.439,0.077,0.554h0.012c0.047-0.115,0.112-0.267,0.242-0.527
		l0.695-1.338h0.436l-1.272,2.288h-0.383l-0.4-2.288H14.282z"/>
	<path class="st2" d="M16.461,51.889c-0.135,0-0.23-0.104-0.23-0.25c0-0.152,0.118-0.283,0.265-0.283
		c0.147,0,0.242,0.115,0.242,0.267c-0.006,0.162-0.118,0.266-0.271,0.266H16.461z M15.725,54.595l0.442-2.287h0.383l-0.43,2.287
		H15.725z"/>
	<path class="st2" d="M18.18,54.52c-0.106,0.049-0.347,0.122-0.654,0.122c-0.589,0-0.871-0.393-0.871-0.88
		c0-0.782,0.571-1.497,1.396-1.497c0.206,0,0.394,0.056,0.465,0.103l-0.106,0.306c-0.082-0.04-0.212-0.085-0.383-0.085
		c-0.601,0-0.966,0.583-0.966,1.126c0,0.364,0.183,0.604,0.565,0.604c0.23,0,0.406-0.059,0.524-0.115L18.18,54.52z"/>
	<path class="st2" d="M19.152,51.889c-0.135,0-0.218-0.104-0.218-0.25c0-0.152,0.118-0.283,0.265-0.283
		c0.141,0,0.235,0.115,0.235,0.267c0,0.162-0.118,0.266-0.271,0.266H19.152z M18.422,54.595l0.442-2.287h0.389l-0.43,2.287H18.422z"
		/>
	<path class="st2" d="M20.289,54.336c0.459,0,0.807-0.593,0.807-1.125c0-0.271-0.124-0.633-0.524-0.633
		c-0.501,0-0.824,0.593-0.824,1.12c0,0.373,0.212,0.638,0.536,0.638H20.289z M20.241,54.642c-0.577,0-0.895-0.421-0.895-0.926
		c0-0.758,0.524-1.455,1.266-1.455c0.618,0,0.901,0.468,0.901,0.95C21.514,53.918,21.001,54.642,20.241,54.642"/>
	<path class="st2" d="M1.749,58.344c-0.071-0.068-0.212-0.108-0.371-0.108c-0.548,0-0.972,0.583-0.972,1.197
		c0,0.267,0.088,0.557,0.424,0.557c0.306,0,0.665-0.346,0.766-0.861L1.749,58.344z M2.415,56.907l-0.518,2.641
		c-0.035,0.218-0.071,0.495-0.076,0.716H1.455l0.059-0.457H1.502c-0.206,0.324-0.489,0.502-0.819,0.502
		C0.242,60.309,0,59.947,0,59.479c0-0.811,0.601-1.546,1.402-1.546c0.147,0,0.312,0.019,0.418,0.065l0.194-1.091H2.415z"/>
	<path class="st2" d="M3.828,58.513c0-0.169-0.136-0.284-0.348-0.284c-0.371,0-0.654,0.372-0.748,0.726
		c0.612,0.009,1.095-0.074,1.095-0.433V58.513z M3.911,60.131c-0.165,0.096-0.447,0.178-0.754,0.178
		c-0.601,0-0.872-0.408-0.872-0.923c0-0.682,0.513-1.455,1.255-1.455c0.43,0,0.665,0.248,0.665,0.582
		c0,0.605-0.672,0.748-1.519,0.748c-0.018,0.096-0.006,0.306,0.047,0.431c0.094,0.209,0.271,0.303,0.512,0.303
		c0.271,0,0.471-0.082,0.612-0.152L3.911,60.131z"/>
	<polygon class="st2" points="5.524,56.91 4.888,60.264 5.283,60.264 5.925,56.91 	"/>
	<path class="st2" d="M7.544,58.276c-0.059-0.031-0.135-0.04-0.271-0.04c-0.583,0-1.072,0.612-1.072,1.243
		c0,0.261,0.094,0.508,0.383,0.508c0.336,0,0.719-0.422,0.825-1.022L7.544,58.276z M7.297,60.264c0-0.143,0.029-0.353,0.053-0.59
		H7.332c-0.242,0.476-0.56,0.639-0.877,0.639c-0.412,0-0.654-0.325-0.654-0.755c0-0.794,0.577-1.624,1.566-1.624
		c0.218,0,0.465,0.027,0.612,0.075l-0.23,1.194c-0.071,0.392-0.106,0.804-0.094,1.062H7.297z"/>
	<path class="st2" d="M8.074,59.862c0.106,0.069,0.3,0.144,0.489,0.144c0.271,0,0.442-0.162,0.442-0.365
		c0-0.181-0.088-0.303-0.324-0.43c-0.265-0.141-0.412-0.352-0.412-0.583c0-0.399,0.353-0.697,0.83-0.697
		c0.194,0,0.383,0.047,0.471,0.106l-0.112,0.306c-0.077-0.059-0.218-0.115-0.389-0.115c-0.235,0-0.4,0.152-0.4,0.343
		c0,0.171,0.094,0.277,0.306,0.392c0.259,0.133,0.424,0.343,0.424,0.604c0,0.476-0.389,0.742-0.871,0.742
		c-0.248,0-0.465-0.072-0.565-0.149L8.074,59.862z"/>
	<path class="st2" d="M10.725,59.881c0.106,0.077,0.259,0.125,0.442,0.125c0.501,0,0.931-0.63,0.931-1.232
		c0-0.241-0.112-0.527-0.442-0.527c-0.306,0-0.683,0.355-0.801,0.995L10.725,59.881z M10.083,61.193l0.465-2.4
		c0.053-0.28,0.1-0.593,0.118-0.811h0.359l-0.053,0.428h0.012c0.2-0.306,0.507-0.479,0.819-0.479c0.483,0,0.689,0.393,0.689,0.813
		c0,0.813-0.571,1.568-1.331,1.568c-0.235,0-0.395-0.046-0.495-0.105l-0.182,0.985H10.083z"/>
	<path class="st2" d="M14.17,58.513c0-0.169-0.141-0.284-0.359-0.284c-0.371,0-0.642,0.372-0.736,0.726
		c0.606,0.009,1.095-0.074,1.095-0.433V58.513z M14.246,60.131c-0.165,0.096-0.447,0.178-0.748,0.178
		c-0.607,0-0.866-0.408-0.866-0.923c0-0.682,0.501-1.455,1.231-1.455c0.442,0,0.683,0.248,0.683,0.582
		c0,0.605-0.683,0.748-1.52,0.748c-0.024,0.096-0.006,0.306,0.047,0.431c0.082,0.209,0.265,0.303,0.512,0.303
		c0.265,0,0.465-0.082,0.607-0.152L14.246,60.131z"/>
	<path class="st2" d="M14.552,60.264l0.277-1.471c0.059-0.303,0.094-0.612,0.106-0.814h0.353c-0.012,0.154-0.029,0.309-0.059,0.498
		h0.012c0.159-0.324,0.383-0.543,0.695-0.543l0.118,0.009l-0.083,0.383l-0.1-0.01c-0.347,0-0.636,0.4-0.742,0.924l-0.194,1.025
		H14.552z"/>
	<path class="st2" d="M15.883,59.862c0.106,0.069,0.306,0.144,0.495,0.144c0.265,0,0.43-0.162,0.43-0.365
		c0-0.181-0.077-0.303-0.312-0.43c-0.265-0.141-0.424-0.352-0.424-0.583c0-0.399,0.353-0.697,0.836-0.697
		c0.206,0,0.383,0.047,0.471,0.106l-0.1,0.306c-0.077-0.059-0.235-0.115-0.4-0.115c-0.235,0-0.406,0.152-0.406,0.343
		c0,0.171,0.112,0.277,0.312,0.392c0.259,0.133,0.43,0.343,0.43,0.604c0,0.476-0.394,0.742-0.871,0.742
		c-0.248,0-0.471-0.072-0.571-0.149L15.883,59.862z"/>
	<path class="st2" d="M18.398,60.006c0.465,0,0.813-0.602,0.813-1.138c0-0.259-0.118-0.632-0.53-0.632
		c-0.501,0-0.818,0.602-0.818,1.12c0,0.372,0.212,0.649,0.524,0.649H18.398z M18.351,60.312c-0.571,0-0.889-0.421-0.889-0.945
		c0-0.746,0.53-1.436,1.26-1.436c0.618,0,0.901,0.46,0.901,0.937c0,0.709-0.501,1.444-1.26,1.444H18.351z"/>
	<path class="st2" d="M19.711,60.264l0.301-1.626c0.053-0.247,0.088-0.468,0.106-0.659h0.359l-0.065,0.45h0.012
		c0.212-0.325,0.518-0.496,0.854-0.496c0.265,0,0.571,0.144,0.571,0.629c0,0.096-0.017,0.239-0.047,0.364l-0.253,1.338h-0.383
		l0.247-1.329l0.03-0.286c0-0.228-0.088-0.403-0.359-0.403c-0.277,0-0.671,0.334-0.783,0.899l-0.2,1.119H19.711z"/>
	<path class="st2" d="M23.81,58.276c-0.059-0.031-0.135-0.04-0.277-0.04c-0.589,0-1.072,0.612-1.072,1.243
		c0,0.261,0.1,0.508,0.383,0.508c0.336,0,0.719-0.422,0.83-1.022L23.81,58.276z M23.557,60.264c0-0.143,0.024-0.353,0.053-0.59
		h-0.012c-0.247,0.476-0.565,0.639-0.889,0.639c-0.406,0-0.654-0.325-0.654-0.755c0-0.794,0.583-1.624,1.578-1.624
		c0.212,0,0.454,0.027,0.613,0.075l-0.236,1.194c-0.071,0.392-0.094,0.804-0.088,1.062H23.557z"/>
	<path class="st2" d="M24.334,59.862c0.106,0.069,0.306,0.144,0.495,0.144c0.265,0,0.43-0.162,0.43-0.365
		c0-0.181-0.077-0.303-0.318-0.43c-0.271-0.141-0.412-0.352-0.412-0.583c0-0.399,0.347-0.697,0.83-0.697
		c0.206,0,0.383,0.047,0.471,0.106l-0.112,0.306c-0.077-0.059-0.218-0.115-0.383-0.115c-0.242,0-0.424,0.152-0.424,0.343
		c0,0.171,0.118,0.277,0.324,0.392c0.259,0.133,0.424,0.343,0.424,0.604c0,0.476-0.389,0.742-0.872,0.742
		c-0.247,0-0.465-0.072-0.565-0.149L24.334,59.862z"/>
	<path class="st2" d="M1.732,63.64l0.229,1.224c0.047,0.259,0.083,0.437,0.1,0.602h0.018c0.059-0.141,0.124-0.306,0.242-0.564
		l0.583-1.262h0.418l-0.866,1.74c-0.242,0.487-0.471,0.888-0.777,1.194c-0.259,0.247-0.536,0.362-0.665,0.391L0.907,66.63
		c0.106-0.037,0.271-0.096,0.43-0.228c0.147-0.106,0.324-0.296,0.442-0.517l0.006-0.103L1.337,63.64H1.732z"/>
	<polygon class="st2" points="4.435,62.575 3.799,65.923 4.193,65.923 4.829,62.575 	"/>
	<path class="st2" d="M6.455,63.925c-0.053-0.009-0.13-0.019-0.265-0.019c-0.595,0-1.078,0.604-1.078,1.234
		c0,0.256,0.088,0.506,0.383,0.506c0.33,0,0.719-0.428,0.836-1.022L6.455,63.925z M6.207,65.923c0-0.141,0.03-0.352,0.047-0.592l0,0
		c-0.253,0.477-0.571,0.639-0.89,0.639c-0.406,0-0.654-0.324-0.654-0.752c0-0.804,0.583-1.639,1.572-1.639
		c0.218,0,0.46,0.043,0.612,0.087l-0.229,1.197c-0.083,0.389-0.106,0.801-0.094,1.06H6.207z"/>
	<path class="st2" d="M6.985,65.532c0.1,0.059,0.301,0.141,0.495,0.141c0.259,0,0.43-0.178,0.43-0.369
		c0-0.184-0.077-0.299-0.318-0.431c-0.271-0.144-0.412-0.343-0.412-0.583c0-0.402,0.347-0.706,0.836-0.706
		c0.188,0,0.383,0.056,0.471,0.113l-0.118,0.309c-0.077-0.052-0.218-0.118-0.394-0.118c-0.236,0-0.406,0.155-0.406,0.355
		c0,0.162,0.112,0.258,0.318,0.383c0.247,0.141,0.424,0.343,0.424,0.59c0,0.498-0.377,0.755-0.872,0.755
		c-0.247-0.008-0.465-0.074-0.565-0.159L6.985,65.532z"/>
	<path class="st2" d="M9.199,65.926l0.306-1.628c0.053-0.248,0.088-0.477,0.112-0.66h0.353L9.912,64.08l0,0
		c0.212-0.318,0.518-0.498,0.86-0.498c0.265,0,0.577,0.162,0.577,0.64c0,0.093-0.024,0.24-0.047,0.362l-0.253,1.341h-0.383
		l0.242-1.331l0.035-0.29c0-0.225-0.088-0.389-0.371-0.389c-0.271,0-0.665,0.325-0.766,0.899l-0.212,1.11H9.199z"/>
	<path class="st2" d="M13.298,63.925c-0.053-0.009-0.135-0.019-0.265-0.019c-0.595,0-1.072,0.604-1.072,1.234
		c0,0.256,0.083,0.506,0.383,0.506c0.324,0,0.719-0.428,0.83-1.022L13.298,63.925z M13.051,65.923c0-0.141,0.029-0.352,0.047-0.592
		l0,0c-0.253,0.477-0.565,0.639-0.889,0.639c-0.406,0-0.654-0.324-0.654-0.752c0-0.804,0.583-1.639,1.572-1.639
		c0.212,0,0.459,0.043,0.618,0.087l-0.235,1.197c-0.082,0.389-0.1,0.801-0.088,1.06H13.051z"/>
	<path class="st2" d="M15.371,65.827c-0.112,0.069-0.353,0.146-0.66,0.146c-0.583,0-0.877-0.405-0.877-0.88
		c0-0.785,0.577-1.509,1.402-1.509c0.212,0,0.4,0.065,0.477,0.115l-0.118,0.303c-0.094-0.049-0.212-0.085-0.394-0.085
		c-0.595,0-0.954,0.576-0.954,1.128c0,0.365,0.188,0.602,0.56,0.602c0.235,0,0.412-0.068,0.53-0.122L15.371,65.827z"/>
	<path class="st2" d="M16.343,63.217c-0.13,0-0.224-0.106-0.224-0.258c0-0.163,0.112-0.277,0.265-0.277
		c0.141,0,0.242,0.113,0.242,0.261c-0.006,0.159-0.118,0.274-0.277,0.274H16.343z M15.613,65.923l0.436-2.285h0.4l-0.442,2.285
		H15.613z"/>
	<path class="st2" d="M17.468,65.667c0.471,0,0.819-0.604,0.819-1.138c0-0.261-0.124-0.623-0.53-0.623
		c-0.495,0-0.819,0.583-0.819,1.11C16.938,65.399,17.144,65.667,17.468,65.667L17.468,65.667z M17.426,65.97
		c-0.577,0-0.895-0.43-0.895-0.937c0-0.755,0.53-1.452,1.272-1.452c0.607,0,0.895,0.468,0.895,0.947
		c0,0.719-0.501,1.442-1.266,1.442H17.426z"/>
	<path class="st2" d="M18.787,65.926l0.306-1.628c0.047-0.248,0.077-0.477,0.106-0.66h0.342l-0.053,0.442h0.012
		c0.206-0.318,0.501-0.498,0.836-0.498c0.283,0,0.583,0.162,0.583,0.64c0,0.093-0.024,0.24-0.041,0.362l-0.248,1.341h-0.389
		l0.242-1.331l0.035-0.29c0-0.225-0.094-0.389-0.365-0.389c-0.277,0-0.671,0.325-0.777,0.899l-0.206,1.11H18.787z"/>
	<path class="st2" d="M22.674,64.174c0-0.172-0.141-0.287-0.353-0.287c-0.371,0-0.654,0.362-0.742,0.728
		C22.185,64.622,22.674,64.536,22.674,64.174 M22.75,65.799c-0.165,0.085-0.448,0.171-0.754,0.171c-0.601,0-0.86-0.42-0.86-0.916
		c0-0.7,0.507-1.472,1.243-1.472c0.436,0,0.672,0.258,0.672,0.592c0,0.592-0.677,0.757-1.525,0.738
		c-0.006,0.106,0,0.303,0.053,0.439c0.082,0.2,0.271,0.296,0.501,0.296c0.271,0,0.477-0.075,0.624-0.152L22.75,65.799z"/>
	<path class="st2" d="M23.08,65.532c0.1,0.059,0.306,0.141,0.495,0.141c0.259,0,0.43-0.178,0.43-0.369
		c0-0.184-0.077-0.299-0.318-0.431c-0.265-0.144-0.412-0.343-0.412-0.583c0-0.402,0.347-0.706,0.836-0.706
		c0.194,0,0.377,0.056,0.465,0.113l-0.1,0.309c-0.094-0.052-0.235-0.118-0.4-0.118c-0.242,0-0.4,0.155-0.4,0.355
		c0,0.162,0.1,0.258,0.306,0.383c0.253,0.141,0.424,0.343,0.424,0.59c0,0.498-0.395,0.755-0.872,0.755
		c-0.247-0.008-0.459-0.074-0.565-0.159L23.08,65.532z"/>
</g>
</svg>