<!-- Generator: Adobe Illustrator 19.2.0, SVG Export Plug-In  -->
<svg version="1.1"
	 xmlns="http://www.w3.org/2000/svg" xmlns:xlink="http://www.w3.org/1999/xlink" xmlns:a="http://ns.adobe.com/AdobeSVGViewerExtensions/3.0/"
	 x="0px" y="0px" width="266.052px" height="188.401px" viewBox="0 0 266.052 188.401"
	 style="enable-background:new 0 0 266.052 188.401;" xml:space="preserve">
<style type="text/css">
	.st0{fill:none;}
	.st1{fill:#186DAC;}
	.st2{fill:none;stroke:url(#SVGID_1_);stroke-width:2;stroke-miterlimit:10;}
	.st3{font-family:'MyriadPro-BoldCond';}
	.st4{font-size:12.9742px;}
	.st5{font-family:'MyriadPro-LightCond';}
	.st6{font-family:'MyriadPro-Regular';}
	.st7{font-size:21.2305px;}
	.st8{font-family:'MyriadPro-Bold';}
	.st9{font-family:'MyriadPro-Light';}
	.st10{font-family:'MyriadPro-SemiCn';}
	.st11{font-size:11px;}
	.st12{font-family:'MyriadPro-LightSemiCn';}
	.st13{fill:none;stroke:url(#SVGID_2_);stroke-width:2;stroke-miterlimit:10;}
</style>
<defs>
</defs>
<g>
	<rect y="1.882" class="st0" width="266.052" height="88.931"/>
	<path d="M4.436,7.02H2.451v2.361h2.244v1.479H0.752V2.118h3.8v1.479H2.451v2.01h1.984V7.02z"/>
	<path d="M5.67,1.884h1.699v8.975H5.67V1.884z"/>
	<path d="M10.808,2.248c0.479-0.104,1.128-0.169,1.777-0.169c1.012,0,1.815,0.143,2.374,0.674c0.519,0.454,0.752,1.181,0.752,1.92
		c0,0.947-0.285,1.621-0.739,2.101c-0.544,0.583-1.414,0.843-2.127,0.843c-0.117,0-0.221,0-0.337-0.013v3.255h-1.699V2.248z
		 M12.506,6.229c0.091,0.013,0.182,0.013,0.286,0.013c0.856,0,1.232-0.61,1.232-1.427c0-0.765-0.311-1.362-1.103-1.362
		c-0.155,0-0.311,0.026-0.415,0.065V6.229z"/>
	<path d="M16.581,6.424c0-0.623-0.026-1.31-0.052-1.907h1.465l0.091,0.921h0.052C18.41,4.764,18.929,4.4,19.382,4.4
		c0.182,0,0.272,0.013,0.363,0.039v1.673C19.642,6.1,19.525,6.1,19.382,6.1c-0.363,0-0.843,0.246-1.024,0.895
		C18.306,7.137,18.28,7.371,18.28,7.63v3.229h-1.699V6.424z"/>
	<path d="M24.974,7.669c0,2.646-1.466,3.294-2.426,3.294c-1.517,0-2.425-1.193-2.425-3.256c0-2.283,1.193-3.307,2.452-3.307
		C24.079,4.4,24.974,5.658,24.974,7.669z M21.809,7.669c0,1.089,0.169,1.997,0.778,1.997c0.558,0,0.701-1.063,0.701-1.997
		c0-0.869-0.143-1.972-0.727-1.972C21.938,5.697,21.809,6.8,21.809,7.669z"/>
	<path d="M30.565,10.146c0,1.362-0.26,2.114-0.766,2.607c-0.467,0.441-1.141,0.701-2.062,0.701c-0.597,0-1.128-0.104-1.583-0.298
		l0.312-1.31c0.311,0.155,0.713,0.272,1.206,0.272c0.856,0,1.193-0.571,1.193-1.543v-0.389H28.84
		c-0.221,0.402-0.662,0.635-1.142,0.635c-1.414,0-1.971-1.556-1.971-3.074c0-2.114,0.96-3.346,2.127-3.346
		c0.506,0,0.921,0.272,1.167,0.765h0.026l0.091-0.648h1.491c-0.039,0.583-0.064,1.245-0.064,2.01V10.146z M28.866,6.826
		c0-0.168-0.026-0.337-0.065-0.467c-0.078-0.272-0.259-0.519-0.544-0.519c-0.61,0-0.856,0.83-0.856,1.868
		c0,1.181,0.337,1.777,0.83,1.777c0.221,0,0.428-0.117,0.558-0.454c0.064-0.143,0.078-0.337,0.078-0.506V6.826z"/>
	<path d="M31.734,6.424c0-0.623-0.026-1.31-0.052-1.907h1.465l0.091,0.921h0.052C33.563,4.764,34.082,4.4,34.536,4.4
		c0.182,0,0.272,0.013,0.363,0.039v1.673C34.795,6.1,34.679,6.1,34.536,6.1c-0.363,0-0.843,0.246-1.024,0.895
		c-0.052,0.143-0.078,0.376-0.078,0.636v3.229h-1.699V6.424z"/>
	<path d="M39.829,9.407c0,0.506,0.026,1.024,0.09,1.453h-1.517l-0.091-0.623h-0.039c-0.337,0.48-0.843,0.727-1.401,0.727
		c-0.959,0-1.673-0.804-1.673-1.92c0-1.673,1.465-2.348,2.905-2.36V6.541c0-0.506-0.286-0.869-0.895-0.869
		c-0.506,0-0.908,0.143-1.297,0.376l-0.312-1.154c0.363-0.194,1.089-0.48,1.984-0.48c1.933,0,2.244,1.349,2.244,2.646V9.407z
		 M38.156,7.772c-0.558,0.013-1.349,0.208-1.349,1.089c0,0.623,0.351,0.856,0.61,0.856c0.285,0,0.583-0.169,0.7-0.545
		c0.026-0.091,0.039-0.182,0.039-0.298V7.772z"/>
	<path d="M41.011,6.424c0-0.688-0.026-1.297-0.052-1.907h1.479l0.091,0.726h0.026C42.878,4.776,43.41,4.4,44.059,4.4
		c0.713,0,1.167,0.324,1.388,0.869h0.026c0.156-0.247,0.402-0.48,0.648-0.636C46.38,4.478,46.679,4.4,47.003,4.4
		c1.142,0,1.647,0.908,1.647,2.425v4.034h-1.699V7.111c0-0.713-0.078-1.297-0.583-1.297c-0.298,0-0.532,0.208-0.636,0.571
		c-0.039,0.104-0.052,0.272-0.052,0.454v4.021h-1.699V6.877c0-0.467-0.039-1.063-0.571-1.063c-0.259,0-0.519,0.182-0.635,0.571
		c-0.039,0.117-0.065,0.298-0.065,0.48v3.995h-1.699V6.424z"/>
	<path d="M54.126,9.407c0,0.506,0.026,1.024,0.091,1.453H52.7l-0.091-0.623H52.57c-0.337,0.48-0.843,0.727-1.401,0.727
		c-0.959,0-1.673-0.804-1.673-1.92c0-1.673,1.465-2.348,2.905-2.36V6.541c0-0.506-0.286-0.869-0.895-0.869
		c-0.506,0-0.908,0.143-1.297,0.376l-0.312-1.154c0.363-0.194,1.089-0.48,1.984-0.48c1.933,0,2.244,1.349,2.244,2.646V9.407z
		 M52.453,7.772c-0.558,0.013-1.349,0.208-1.349,1.089c0,0.623,0.351,0.856,0.61,0.856c0.285,0,0.583-0.169,0.7-0.545
		c0.026-0.091,0.039-0.182,0.039-0.298V7.772z"/>
	<path d="M61.989,1.884v7.094c0,0.597,0.026,1.297,0.052,1.881h-1.466l-0.091-0.713h-0.039c-0.233,0.441-0.739,0.817-1.31,0.817
		c-1.349,0-1.972-1.492-1.972-3.269c0-2.205,0.973-3.294,2.037-3.294c0.558,0,0.895,0.285,1.063,0.648h0.026V1.884H61.989z
		 M60.29,6.956c0-0.117,0-0.26-0.026-0.376c-0.052-0.389-0.26-0.739-0.597-0.739c-0.597,0-0.817,0.869-0.817,1.894
		c0,1.207,0.324,1.842,0.792,1.842c0.22,0,0.467-0.117,0.597-0.558c0.039-0.091,0.052-0.233,0.052-0.402V6.956z"/>
	<path d="M64.61,8.292c0.013,0.985,0.597,1.349,1.336,1.349c0.479,0,0.895-0.104,1.206-0.208l0.221,1.219
		c-0.428,0.168-1.09,0.285-1.725,0.285c-1.738,0-2.685-1.141-2.685-3.125c0-2.14,1.116-3.411,2.542-3.411
		c1.362,0,2.153,1.077,2.153,3.009c0,0.454-0.026,0.701-0.052,0.882H64.61z M66.115,7.098c0-0.817-0.208-1.453-0.713-1.453
		c-0.545,0-0.778,0.817-0.791,1.453H66.115z"/>
	<path d="M70.683,1.884h1.699v8.975h-1.699V1.884z"/>
	<path d="M77.882,9.407c0,0.506,0.026,1.024,0.09,1.453h-1.517l-0.091-0.623h-0.039c-0.337,0.48-0.843,0.727-1.401,0.727
		c-0.959,0-1.673-0.804-1.673-1.92c0-1.673,1.465-2.348,2.905-2.36V6.541c0-0.506-0.286-0.869-0.895-0.869
		c-0.506,0-0.908,0.143-1.297,0.376l-0.312-1.154c0.363-0.194,1.089-0.48,1.984-0.48c1.933,0,2.244,1.349,2.244,2.646V9.407z
		 M76.208,7.772c-0.558,0.013-1.349,0.208-1.349,1.089c0,0.623,0.351,0.856,0.61,0.856c0.285,0,0.583-0.169,0.7-0.545
		c0.026-0.091,0.039-0.182,0.039-0.298V7.772z"/>
	<path d="M79.025,9.329c0.246,0.155,0.713,0.337,1.141,0.337c0.441,0,0.688-0.194,0.688-0.571c0-0.324-0.182-0.532-0.739-0.856
		c-1.025-0.583-1.284-1.245-1.284-1.829c0-1.141,0.817-2.01,2.088-2.01c0.532,0,0.947,0.129,1.284,0.298l-0.298,1.245
		c-0.247-0.143-0.545-0.259-0.882-0.259c-0.441,0-0.635,0.259-0.635,0.544c0,0.272,0.143,0.441,0.739,0.791
		c0.934,0.532,1.284,1.193,1.284,1.92c0,1.297-0.934,1.997-2.244,1.997c-0.532,0-1.154-0.143-1.439-0.363L79.025,9.329z"/>
	<path d="M85.499,10.859V2.118h1.556l1.349,3.424c0.272,0.675,0.687,1.803,0.934,2.555h0.026c-0.052-0.921-0.168-2.438-0.168-4.046
		V2.118h1.492v8.742H89.13l-1.336-3.32c-0.298-0.739-0.688-1.854-0.895-2.633h-0.026c0.052,0.882,0.117,2.231,0.117,3.995v1.958
		H85.499z"/>
	<path d="M96.317,9.407c0,0.506,0.026,1.024,0.091,1.453h-1.517L94.8,10.237h-0.039c-0.337,0.48-0.843,0.727-1.401,0.727
		c-0.959,0-1.673-0.804-1.673-1.92c0-1.673,1.465-2.348,2.905-2.36V6.541c0-0.506-0.286-0.869-0.895-0.869
		c-0.506,0-0.908,0.143-1.297,0.376l-0.312-1.154c0.363-0.194,1.089-0.48,1.984-0.48c1.933,0,2.244,1.349,2.244,2.646V9.407z
		 M94.645,7.772c-0.558,0.013-1.349,0.208-1.349,1.089c0,0.623,0.351,0.856,0.61,0.856c0.285,0,0.583-0.169,0.7-0.545
		c0.026-0.091,0.039-0.182,0.039-0.298V7.772z"/>
	<path d="M101.027,10.755c-0.168,0.078-0.597,0.182-1.076,0.182c-1.608,0-2.659-1.115-2.659-3.177c0-1.958,1.154-3.32,2.905-3.32
		c0.402,0,0.766,0.09,0.934,0.168l-0.221,1.336c-0.143-0.052-0.35-0.117-0.635-0.117c-0.817,0-1.297,0.778-1.297,1.88
		c0,1.142,0.48,1.842,1.271,1.842c0.246,0,0.454-0.039,0.635-0.129L101.027,10.755z"/>
	<path d="M103.402,2.844c0.013,0.545-0.376,0.921-0.895,0.921c-0.467,0-0.856-0.376-0.843-0.921
		c-0.013-0.57,0.402-0.934,0.869-0.934C103.026,1.91,103.402,2.273,103.402,2.844z M101.703,10.859V4.517h1.699v6.342H101.703z"/>
	<path d="M109.227,7.669c0,2.646-1.466,3.294-2.426,3.294c-1.517,0-2.425-1.193-2.425-3.256c0-2.283,1.193-3.307,2.452-3.307
		C108.332,4.4,109.227,5.658,109.227,7.669z M106.062,7.669c0,1.089,0.169,1.997,0.778,1.997c0.558,0,0.701-1.063,0.701-1.997
		c0-0.869-0.143-1.972-0.727-1.972C106.191,5.697,106.062,6.8,106.062,7.669z"/>
	<path d="M110.188,6.424c0-0.688-0.026-1.297-0.052-1.907h1.465l0.091,0.726h0.026c0.324-0.493,0.869-0.83,1.531-0.83
		c1.206,0,1.686,0.96,1.686,2.374v4.073h-1.699V6.891c0-0.532-0.13-1.051-0.623-1.051c-0.285,0-0.519,0.195-0.636,0.571
		c-0.052,0.13-0.09,0.337-0.09,0.583v3.865h-1.699V6.424z"/>
	<path d="M117.557,8.292c0.013,0.985,0.597,1.349,1.336,1.349c0.479,0,0.895-0.104,1.206-0.208l0.221,1.219
		c-0.428,0.168-1.09,0.285-1.725,0.285c-1.738,0-2.685-1.141-2.685-3.125c0-2.14,1.116-3.411,2.542-3.411
		c1.362,0,2.153,1.077,2.153,3.009c0,0.454-0.026,0.701-0.052,0.882H117.557z M119.061,7.098c0-0.817-0.208-1.453-0.713-1.453
		c-0.545,0-0.778,0.817-0.791,1.453H119.061z"/>
	<path d="M121.515,9.329c0.246,0.155,0.713,0.337,1.142,0.337c0.44,0,0.687-0.194,0.687-0.571c0-0.324-0.181-0.532-0.739-0.856
		c-1.024-0.583-1.283-1.245-1.283-1.829c0-1.141,0.816-2.01,2.088-2.01c0.531,0,0.946,0.129,1.284,0.298l-0.299,1.245
		c-0.246-0.143-0.545-0.259-0.882-0.259c-0.44,0-0.636,0.259-0.636,0.544c0,0.272,0.143,0.441,0.739,0.791
		c0.935,0.532,1.284,1.193,1.284,1.92c0,1.297-0.934,1.997-2.243,1.997c-0.532,0-1.154-0.143-1.44-0.363L121.515,9.329z"/>
	<path d="M129.635,2.118v5.681c0,1.284,0.376,1.673,0.83,1.673c0.493,0,0.843-0.35,0.843-1.673V2.118h1.699V7.5
		c0,2.244-0.855,3.463-2.529,3.463c-1.828,0-2.542-1.258-2.542-3.45V2.118H129.635z"/>
	<path d="M134.319,6.424c0-0.688-0.026-1.297-0.052-1.907h1.466l0.091,0.726h0.025c0.324-0.493,0.869-0.83,1.53-0.83
		c1.206,0,1.687,0.96,1.687,2.374v4.073h-1.699V6.891c0-0.532-0.13-1.051-0.622-1.051c-0.286,0-0.52,0.195-0.636,0.571
		c-0.052,0.13-0.091,0.337-0.091,0.583v3.865h-1.699V6.424z"/>
	<path d="M141.961,2.844c0.013,0.545-0.376,0.921-0.896,0.921c-0.467,0-0.855-0.376-0.843-0.921
		c-0.013-0.57,0.402-0.934,0.869-0.934C141.585,1.91,141.961,2.273,141.961,2.844z M140.262,10.859V4.517h1.699v6.342H140.262z"/>
	<path d="M147.76,1.884v7.094c0,0.597,0.025,1.297,0.052,1.881h-1.466l-0.091-0.713h-0.039c-0.233,0.441-0.739,0.817-1.31,0.817
		c-1.349,0-1.972-1.492-1.972-3.269c0-2.205,0.973-3.294,2.036-3.294c0.558,0,0.896,0.285,1.063,0.648h0.026V1.884H147.76z
		 M146.061,6.956c0-0.117,0-0.26-0.026-0.376c-0.052-0.389-0.259-0.739-0.597-0.739c-0.597,0-0.816,0.869-0.816,1.894
		c0,1.207,0.324,1.842,0.791,1.842c0.221,0,0.467-0.117,0.597-0.558c0.039-0.091,0.052-0.233,0.052-0.402V6.956z"/>
	<path d="M153.235,9.407c0,0.506,0.025,1.024,0.091,1.453h-1.518l-0.091-0.623h-0.039c-0.337,0.48-0.843,0.727-1.4,0.727
		c-0.96,0-1.674-0.804-1.674-1.92c0-1.673,1.466-2.348,2.905-2.36V6.541c0-0.506-0.285-0.869-0.895-0.869
		c-0.506,0-0.908,0.143-1.297,0.376l-0.312-1.154c0.363-0.194,1.09-0.48,1.984-0.48c1.933,0,2.244,1.349,2.244,2.646V9.407z
		 M151.562,7.772c-0.558,0.013-1.349,0.208-1.349,1.089c0,0.623,0.351,0.856,0.609,0.856c0.286,0,0.584-0.169,0.701-0.545
		c0.025-0.091,0.038-0.182,0.038-0.298V7.772z"/>
	<path d="M154.378,9.329c0.246,0.155,0.713,0.337,1.142,0.337c0.44,0,0.687-0.194,0.687-0.571c0-0.324-0.181-0.532-0.739-0.856
		c-1.024-0.583-1.283-1.245-1.283-1.829c0-1.141,0.816-2.01,2.088-2.01c0.531,0,0.946,0.129,1.284,0.298l-0.299,1.245
		c-0.246-0.143-0.545-0.259-0.882-0.259c-0.44,0-0.636,0.259-0.636,0.544c0,0.272,0.143,0.441,0.739,0.791
		c0.935,0.532,1.284,1.193,1.284,1.92c0,1.297-0.934,1.997-2.243,1.997c-0.532,0-1.154-0.143-1.44-0.363L154.378,9.329z"/>
	<path d="M160.683,6.527c0-0.765-0.026-1.401-0.052-2.01h1.479l0.091,0.726h0.025c0.26-0.519,0.739-0.843,1.336-0.843
		c1.388,0,1.959,1.518,1.959,3.281c0,2.257-0.986,3.282-2.062,3.282c-0.519,0-0.869-0.325-1.051-0.623h-0.025v3.009h-1.699V6.527z
		 M162.382,8.551c0,0.208,0.025,0.402,0.09,0.532c0.13,0.389,0.351,0.493,0.545,0.493c0.597,0,0.817-0.882,0.817-1.88
		c0-1.207-0.298-1.855-0.804-1.855c-0.26,0-0.506,0.247-0.571,0.545c-0.064,0.13-0.077,0.298-0.077,0.454V8.551z"/>
	<path d="M170.775,9.407c0,0.506,0.025,1.024,0.091,1.453h-1.518l-0.091-0.623h-0.039c-0.337,0.48-0.843,0.727-1.4,0.727
		c-0.96,0-1.674-0.804-1.674-1.92c0-1.673,1.466-2.348,2.905-2.36V6.541c0-0.506-0.285-0.869-0.895-0.869
		c-0.506,0-0.908,0.143-1.297,0.376l-0.312-1.154c0.363-0.194,1.09-0.48,1.984-0.48c1.933,0,2.244,1.349,2.244,2.646V9.407z
		 M169.102,7.772c-0.558,0.013-1.349,0.208-1.349,1.089c0,0.623,0.351,0.856,0.609,0.856c0.286,0,0.584-0.169,0.701-0.545
		c0.025-0.091,0.038-0.182,0.038-0.298V7.772z"/>
	<path d="M171.97,6.424c0-0.623-0.026-1.31-0.052-1.907h1.466l0.091,0.921h0.052c0.272-0.674,0.791-1.038,1.245-1.038
		c0.182,0,0.272,0.013,0.363,0.039v1.673C175.03,6.1,174.914,6.1,174.771,6.1c-0.363,0-0.844,0.246-1.025,0.895
		c-0.052,0.143-0.077,0.376-0.077,0.636v3.229h-1.699V6.424z"/>
	<path d="M180.064,9.407c0,0.506,0.025,1.024,0.091,1.453h-1.518l-0.091-0.623h-0.039c-0.337,0.48-0.843,0.727-1.4,0.727
		c-0.96,0-1.674-0.804-1.674-1.92c0-1.673,1.466-2.348,2.905-2.36V6.541c0-0.506-0.285-0.869-0.895-0.869
		c-0.506,0-0.908,0.143-1.297,0.376l-0.312-1.154c0.363-0.194,1.09-0.48,1.984-0.48c1.933,0,2.244,1.349,2.244,2.646V9.407z
		 M178.391,7.772c-0.558,0.013-1.349,0.208-1.349,1.089c0,0.623,0.351,0.856,0.609,0.856c0.286,0,0.584-0.169,0.701-0.545
		c0.025-0.091,0.038-0.182,0.038-0.298V7.772z"/>
	<path d="M184.748,8.292c0.013,0.985,0.597,1.349,1.336,1.349c0.479,0,0.895-0.104,1.206-0.208l0.221,1.219
		c-0.428,0.168-1.09,0.285-1.726,0.285c-1.737,0-2.685-1.141-2.685-3.125c0-2.14,1.115-3.411,2.542-3.411
		c1.362,0,2.153,1.077,2.153,3.009c0,0.454-0.026,0.701-0.052,0.882H184.748z M186.253,7.098c0-0.817-0.208-1.453-0.714-1.453
		c-0.545,0-0.778,0.817-0.791,1.453H186.253z"/>
	<path d="M188.758,1.884h1.699v8.975h-1.699V1.884z"/>
	<path d="M193.895,2.248c0.429-0.104,1.051-0.169,1.726-0.169c1.103,0,1.867,0.259,2.425,0.778c0.753,0.674,1.142,1.829,1.142,3.528
		c0,1.764-0.454,3.022-1.219,3.696c-0.597,0.558-1.453,0.843-2.659,0.843c-0.545,0-1.076-0.052-1.414-0.104V2.248z M195.594,9.51
		c0.091,0.026,0.208,0.026,0.299,0.026c0.816,0,1.53-0.804,1.53-3.217c0-1.79-0.467-2.879-1.492-2.879c-0.116,0-0.233,0-0.337,0.039
		V9.51z"/>
	<path d="M201.536,8.292c0.013,0.985,0.597,1.349,1.336,1.349c0.479,0,0.895-0.104,1.206-0.208l0.221,1.219
		c-0.429,0.168-1.09,0.285-1.726,0.285c-1.737,0-2.685-1.141-2.685-3.125c0-2.14,1.115-3.411,2.542-3.411
		c1.362,0,2.153,1.077,2.153,3.009c0,0.454-0.026,0.701-0.052,0.882H201.536z M203.04,7.098c0-0.817-0.207-1.453-0.713-1.453
		c-0.545,0-0.778,0.817-0.791,1.453H203.04z"/>
	<path d="M205.494,9.329c0.246,0.155,0.713,0.337,1.142,0.337c0.44,0,0.687-0.194,0.687-0.571c0-0.324-0.181-0.532-0.739-0.856
		c-1.024-0.583-1.283-1.245-1.283-1.829c0-1.141,0.816-2.01,2.088-2.01c0.531,0,0.946,0.129,1.284,0.298l-0.299,1.245
		c-0.246-0.143-0.545-0.259-0.882-0.259c-0.44,0-0.636,0.259-0.636,0.544c0,0.272,0.143,0.441,0.739,0.791
		c0.935,0.532,1.284,1.193,1.284,1.92c0,1.297-0.934,1.997-2.243,1.997c-0.532,0-1.154-0.143-1.44-0.363L205.494,9.329z"/>
	<path d="M214.029,9.407c0,0.506,0.025,1.024,0.091,1.453h-1.518l-0.091-0.623h-0.039c-0.337,0.48-0.843,0.727-1.4,0.727
		c-0.96,0-1.674-0.804-1.674-1.92c0-1.673,1.466-2.348,2.905-2.36V6.541c0-0.506-0.285-0.869-0.895-0.869
		c-0.506,0-0.908,0.143-1.297,0.376l-0.312-1.154c0.363-0.194,1.09-0.48,1.984-0.48c1.933,0,2.244,1.349,2.244,2.646V9.407z
		 M212.355,7.772c-0.558,0.013-1.349,0.208-1.349,1.089c0,0.623,0.351,0.856,0.609,0.856c0.286,0,0.584-0.169,0.701-0.545
		c0.025-0.091,0.038-0.182,0.038-0.298V7.772z"/>
	<path d="M215.224,6.424c0-0.623-0.026-1.31-0.052-1.907h1.466l0.091,0.921h0.052c0.272-0.674,0.791-1.038,1.245-1.038
		c0.182,0,0.272,0.013,0.363,0.039v1.673C218.284,6.1,218.168,6.1,218.025,6.1c-0.363,0-0.844,0.246-1.025,0.895
		c-0.052,0.143-0.077,0.376-0.077,0.636v3.229h-1.699V6.424z"/>
	<path d="M219.038,6.424c0-0.623-0.026-1.31-0.052-1.907h1.466l0.091,0.921h0.052c0.272-0.674,0.791-1.038,1.245-1.038
		c0.182,0,0.272,0.013,0.363,0.039v1.673C222.099,6.1,221.982,6.1,221.84,6.1c-0.363,0-0.844,0.246-1.025,0.895
		c-0.052,0.143-0.077,0.376-0.077,0.636v3.229h-1.699V6.424z"/>
	<path d="M227.431,7.669c0,2.646-1.465,3.294-2.425,3.294c-1.518,0-2.426-1.193-2.426-3.256c0-2.283,1.193-3.307,2.451-3.307
		C226.536,4.4,227.431,5.658,227.431,7.669z M224.267,7.669c0,1.089,0.168,1.997,0.778,1.997c0.558,0,0.7-1.063,0.7-1.997
		c0-0.869-0.143-1.972-0.727-1.972C224.396,5.697,224.267,6.8,224.267,7.669z"/>
	<path d="M228.393,1.884h1.699v8.975h-1.699V1.884z"/>
	<path d="M231.312,1.884h1.699v8.975h-1.699V1.884z"/>
	<path d="M238.86,7.669c0,2.646-1.465,3.294-2.425,3.294c-1.518,0-2.426-1.193-2.426-3.256c0-2.283,1.193-3.307,2.451-3.307
		C237.966,4.4,238.86,5.658,238.86,7.669z M235.696,7.669c0,1.089,0.168,1.997,0.778,1.997c0.558,0,0.7-1.063,0.7-1.997
		c0-0.869-0.143-1.972-0.727-1.972C235.826,5.697,235.696,6.8,235.696,7.669z"/>
	<path d="M0.765,17.453h0.558v8.975H0.765V17.453z"/>
	<path d="M3.243,23.082c0,2.503,0.869,2.931,1.57,2.931c0.402,0,0.726-0.104,0.934-0.247l0.13,0.428
		c-0.298,0.208-0.752,0.311-1.167,0.311c-1.362,0-2.036-1.284-2.036-3.165c0-1.971,0.713-3.242,1.854-3.242
		c1.232,0,1.569,1.517,1.569,2.62c0,0.117,0,0.233,0,0.363H3.243z M5.5,22.628c0.026-1.53-0.609-2.036-1.063-2.036
		c-0.726,0-1.115,1.038-1.18,2.036H5.5z"/>
	<path d="M9.95,18.607c0,0.298-0.143,0.48-0.441,0.48c-0.233,0-0.402-0.182-0.402-0.48c0-0.286,0.168-0.48,0.415-0.48
		C9.807,18.127,9.95,18.322,9.95,18.607z M9.25,26.428v-6.226h0.558v6.226H9.25z"/>
	<path d="M11.338,21.642c0-0.765-0.039-0.999-0.052-1.439h0.506l0.026,0.765h0.026c0.233-0.506,0.713-0.869,1.375-0.869
		c0.661,0,1.414,0.441,1.414,2.023v4.306h-0.558v-4.085c0-0.882-0.156-1.764-1.025-1.764c-0.505,0-0.999,0.441-1.128,1.297
		c-0.026,0.168-0.026,0.35-0.026,0.544v4.008h-0.558V21.642z"/>
	<path d="M16.087,20.203l0.986,3.943c0.091,0.337,0.208,0.895,0.285,1.375h0.039c0.065-0.441,0.182-0.973,0.272-1.375l0.947-3.943
		h0.571l-1.608,6.226h-0.467l-1.583-6.226H16.087z"/>
	<path d="M20.887,18.607c0,0.298-0.143,0.48-0.441,0.48c-0.233,0-0.402-0.182-0.402-0.48c0-0.286,0.168-0.48,0.415-0.48
		C20.744,18.127,20.887,18.322,20.887,18.607z M20.187,26.428v-6.226h0.558v6.226H20.187z"/>
	<path d="M23.015,18.841v1.362h1.18v0.48h-1.18v4.241c0,0.869,0.286,1.103,0.662,1.103c0.156,0,0.285-0.013,0.376-0.039l0.065,0.428
		c-0.143,0.065-0.298,0.091-0.558,0.091c-0.337,0-0.636-0.104-0.83-0.363c-0.195-0.26-0.272-0.636-0.272-1.427v-4.034h-0.778v-0.48
		h0.778v-1.038L23.015,18.841z"/>
	<path d="M27.853,25.027c0,0.454,0,1.012,0.052,1.401h-0.519l-0.052-0.688h-0.039c-0.233,0.48-0.635,0.791-1.167,0.791
		c-0.765,0-1.375-0.648-1.375-1.712c0-1.504,1.128-2.205,2.542-2.218v-0.233c0-1.063-0.168-1.777-1.077-1.777
		c-0.311,0-0.635,0.117-0.882,0.298l-0.156-0.428c0.208-0.182,0.688-0.363,1.155-0.363c0.843,0,1.517,0.493,1.517,1.984V25.027z
		 M27.295,23.082c-0.48,0-1.958,0.039-1.958,1.699c0,0.934,0.454,1.258,0.869,1.258c0.532,0,0.947-0.428,1.063-1.18
		c0.026-0.143,0.026-0.285,0.026-0.402V23.082z"/>
	<path d="M34.12,25.027c0,0.454,0,1.012,0.052,1.401h-0.519l-0.052-0.688h-0.039c-0.233,0.48-0.635,0.791-1.167,0.791
		c-0.765,0-1.375-0.648-1.375-1.712c0-1.504,1.128-2.205,2.542-2.218v-0.233c0-1.063-0.168-1.777-1.077-1.777
		c-0.311,0-0.635,0.117-0.882,0.298l-0.156-0.428c0.208-0.182,0.688-0.363,1.155-0.363c0.843,0,1.517,0.493,1.517,1.984V25.027z
		 M33.562,23.082c-0.48,0-1.958,0.039-1.958,1.699c0,0.934,0.454,1.258,0.869,1.258c0.532,0,0.947-0.428,1.063-1.18
		c0.026-0.143,0.026-0.285,0.026-0.402V23.082z"/>
	<path d="M35.651,17.453h0.558v8.975h-0.558V17.453z"/>
	<path d="M39.88,17.453h0.558v8.975H39.88V17.453z"/>
	<path d="M44.822,25.027c0,0.454,0,1.012,0.052,1.401h-0.519l-0.052-0.688h-0.039c-0.233,0.48-0.635,0.791-1.167,0.791
		c-0.766,0-1.375-0.648-1.375-1.712c0-1.504,1.128-2.205,2.542-2.218v-0.233c0-1.063-0.168-1.777-1.077-1.777
		c-0.311,0-0.635,0.117-0.882,0.298l-0.156-0.428c0.208-0.182,0.688-0.363,1.154-0.363c0.843,0,1.518,0.493,1.518,1.984V25.027z
		 M44.265,23.082c-0.48,0-1.958,0.039-1.958,1.699c0,0.934,0.454,1.258,0.869,1.258c0.532,0,0.947-0.428,1.063-1.18
		c0.026-0.143,0.026-0.285,0.026-0.402V23.082z"/>
	<path d="M46.354,21.642c0-0.765-0.039-0.999-0.052-1.439h0.506l0.026,0.765h0.026c0.233-0.506,0.713-0.869,1.375-0.869
		c0.661,0,1.414,0.441,1.414,2.023v4.306h-0.558v-4.085c0-0.882-0.156-1.764-1.025-1.764c-0.505,0-0.999,0.441-1.128,1.297
		c-0.026,0.168-0.026,0.35-0.026,0.544v4.008h-0.558V21.642z"/>
	<path d="M50.609,26.091l2.244-4.526c0.143-0.285,0.298-0.571,0.441-0.856v-0.026h-2.413v-0.48h3.074v0.35l-2.244,4.5
		c-0.143,0.286-0.298,0.571-0.441,0.869v0.026h2.633v0.48h-3.294V26.091z"/>
	<path d="M57.666,25.027c0,0.454,0,1.012,0.052,1.401h-0.519l-0.052-0.688h-0.039c-0.233,0.48-0.635,0.791-1.167,0.791
		c-0.766,0-1.375-0.648-1.375-1.712c0-1.504,1.128-2.205,2.542-2.218v-0.233c0-1.063-0.168-1.777-1.077-1.777
		c-0.311,0-0.635,0.117-0.882,0.298l-0.156-0.428c0.208-0.182,0.688-0.363,1.154-0.363c0.843,0,1.518,0.493,1.518,1.984V25.027z
		 M57.108,23.082c-0.48,0-1.958,0.039-1.958,1.699c0,0.934,0.454,1.258,0.869,1.258c0.532,0,0.947-0.428,1.063-1.18
		c0.026-0.143,0.026-0.285,0.026-0.402V23.082z"/>
	<path d="M59.198,21.642c0-0.765-0.039-0.999-0.052-1.439h0.506l0.026,0.791h0.026c0.233-0.532,0.674-0.895,1.349-0.895
		c0.506,0,1.024,0.246,1.271,1.011h0.026c0.168-0.35,0.376-0.609,0.597-0.765c0.246-0.168,0.532-0.246,0.856-0.246
		c0.674,0,1.427,0.441,1.427,2.088v4.241h-0.558v-4.047c0-0.882-0.143-1.803-1.051-1.803c-0.493,0-0.934,0.441-1.089,1.167
		c-0.039,0.208-0.039,0.415-0.039,0.635v4.047h-0.558v-4.202c0-0.83-0.168-1.647-1.038-1.647c-0.506,0-0.999,0.454-1.116,1.297
		c-0.026,0.194-0.026,0.376-0.026,0.57v3.982h-0.558V21.642z"/>
	<path d="M67.462,18.607c0,0.298-0.143,0.48-0.441,0.48c-0.233,0-0.402-0.182-0.402-0.48c0-0.286,0.168-0.48,0.415-0.48
		C67.319,18.127,67.462,18.322,67.462,18.607z M66.762,26.428v-6.226h0.558v6.226H66.762z"/>
	<path d="M69.11,23.082c0,2.503,0.869,2.931,1.57,2.931c0.402,0,0.726-0.104,0.934-0.247l0.13,0.428
		c-0.298,0.208-0.752,0.311-1.167,0.311c-1.362,0-2.036-1.284-2.036-3.165c0-1.971,0.713-3.242,1.854-3.242
		c1.232,0,1.569,1.517,1.569,2.62c0,0.117,0,0.233,0,0.363H69.11z M71.367,22.628c0.026-1.53-0.609-2.036-1.063-2.036
		c-0.726,0-1.115,1.038-1.18,2.036H71.367z"/>
	<path d="M73.106,21.642c0-0.765-0.039-0.999-0.052-1.439h0.506l0.026,0.765h0.026c0.233-0.506,0.713-0.869,1.375-0.869
		c0.661,0,1.414,0.441,1.414,2.023v4.306h-0.558v-4.085c0-0.882-0.156-1.764-1.025-1.764c-0.505,0-0.999,0.441-1.128,1.297
		c-0.026,0.168-0.026,0.35-0.026,0.544v4.008h-0.558V21.642z"/>
	<path d="M78.555,18.841v1.362h1.18v0.48h-1.18v4.241c0,0.869,0.286,1.103,0.662,1.103c0.156,0,0.285-0.013,0.376-0.039l0.065,0.428
		c-0.143,0.065-0.298,0.091-0.558,0.091c-0.337,0-0.636-0.104-0.83-0.363c-0.195-0.26-0.272-0.636-0.272-1.427v-4.034h-0.778v-0.48
		h0.778v-1.038L78.555,18.841z"/>
	<path d="M83.912,23.315c0,2.296-0.92,3.216-1.88,3.216c-0.882,0-1.803-0.92-1.803-3.216s0.921-3.216,1.894-3.216
		C83.004,20.099,83.912,21.02,83.912,23.315z M80.812,23.315c0,1.012,0.194,2.724,1.271,2.724c1.051,0,1.245-1.712,1.245-2.724
		s-0.194-2.724-1.271-2.724C81.006,20.592,80.812,22.304,80.812,23.315z"/>
	<path d="M90.412,17.453v7.704c0,0.311,0.039,1.038,0.052,1.271h-0.48l-0.052-0.83H89.88c-0.182,0.441-0.597,0.934-1.31,0.934
		c-0.882,0-1.738-0.934-1.738-3.19c0-2.231,0.908-3.242,1.803-3.242c0.402,0,0.895,0.168,1.193,0.804h0.026v-3.45H90.412z
		 M89.854,22.55c0-0.143,0-0.298-0.013-0.441c-0.052-0.817-0.558-1.518-1.128-1.518c-0.973,0-1.297,1.336-1.297,2.724
		c0,1.401,0.35,2.724,1.219,2.724c0.363,0,0.908-0.194,1.193-1.388c0.026-0.13,0.026-0.285,0.026-0.428V22.55z"/>
	<path d="M92.19,23.082c0,2.503,0.869,2.931,1.57,2.931c0.402,0,0.726-0.104,0.934-0.247l0.13,0.428
		c-0.298,0.208-0.752,0.311-1.167,0.311c-1.362,0-2.036-1.284-2.036-3.165c0-1.971,0.713-3.242,1.854-3.242
		c1.232,0,1.569,1.517,1.569,2.62c0,0.117,0,0.233,0,0.363H92.19z M94.447,22.628c0.026-1.53-0.609-2.036-1.063-2.036
		c-0.726,0-1.115,1.038-1.18,2.036H94.447z"/>
	<path d="M96.186,17.453h0.558v8.975h-0.558V17.453z"/>
	<path d="M98.288,20.942c0-0.311,0.182-0.532,0.454-0.532c0.298,0,0.454,0.221,0.454,0.532c0,0.312-0.155,0.519-0.467,0.519
		C98.469,21.461,98.288,21.253,98.288,20.942z M98.288,26.013c0-0.312,0.182-0.532,0.454-0.532c0.298,0,0.454,0.22,0.454,0.532
		s-0.155,0.519-0.467,0.519C98.469,26.532,98.288,26.325,98.288,26.013z"/>
	<path class="st1" d="M3.459,43.6v14.306H1.592V43.6H3.459z"/>
	<path class="st1" d="M6.836,50.413c0-1.083-0.021-1.932-0.085-2.781h1.656l0.106,1.698h0.042c0.509-0.955,1.698-1.911,3.396-1.911
		c1.422,0,3.629,0.849,3.629,4.373v6.113h-1.868v-5.922c0-1.655-0.615-3.035-2.377-3.035c-1.21,0-2.165,0.87-2.505,1.91
		c-0.085,0.234-0.127,0.552-0.127,0.871v6.176H6.836V50.413z"/>
	<path class="st1" d="M18.81,57.905v-8.851h-1.422v-1.422h1.422v-0.488c0-1.443,0.34-2.759,1.189-3.587
		c0.7-0.679,1.634-0.955,2.504-0.955c0.679,0,1.231,0.148,1.592,0.297l-0.254,1.443c-0.276-0.127-0.637-0.233-1.189-0.233
		c-1.592,0-1.995,1.38-1.995,2.972v0.552h2.483v1.422h-2.483v8.851H18.81z"/>
	<path class="st1" d="M33.839,52.684c0,3.799-2.653,5.455-5.115,5.455c-2.759,0-4.924-2.038-4.924-5.285
		c0-3.417,2.271-5.434,5.094-5.434C31.843,47.42,33.839,49.564,33.839,52.684z M25.709,52.79c0,2.25,1.273,3.948,3.099,3.948
		c1.783,0,3.12-1.677,3.12-3.99c0-1.74-0.87-3.927-3.078-3.927C26.665,48.821,25.709,50.858,25.709,52.79z"/>
	<path class="st1" d="M36.197,50.837c0-1.21-0.021-2.25-0.085-3.205h1.634l0.085,2.038h0.064c0.467-1.379,1.613-2.25,2.865-2.25
		c0.191,0,0.34,0.021,0.509,0.042v1.762c-0.191-0.042-0.382-0.042-0.637-0.042c-1.316,0-2.25,0.977-2.504,2.377
		c-0.042,0.254-0.064,0.573-0.064,0.87v5.476h-1.868V50.837z"/>
	<path class="st1" d="M43.225,50.413c0-1.083-0.042-1.932-0.085-2.781h1.634l0.085,1.677h0.064c0.573-0.976,1.528-1.889,3.247-1.889
		c1.38,0,2.441,0.849,2.887,2.059h0.042c0.318-0.594,0.743-1.019,1.167-1.337c0.615-0.467,1.273-0.722,2.25-0.722
		c1.379,0,3.396,0.892,3.396,4.458v6.028h-1.826v-5.794c0-1.995-0.743-3.163-2.229-3.163c-1.083,0-1.889,0.786-2.229,1.677
		c-0.085,0.276-0.148,0.594-0.148,0.934v6.346h-1.826V51.75c0-1.634-0.722-2.802-2.144-2.802c-1.146,0-2.017,0.934-2.313,1.868
		c-0.106,0.255-0.148,0.595-0.148,0.913v6.176h-1.826V50.413z"/>
	<path class="st1" d="M61.971,53.108c0.042,2.526,1.634,3.566,3.523,3.566c1.337,0,2.165-0.233,2.844-0.531l0.339,1.337
		c-0.658,0.297-1.804,0.658-3.438,0.658c-3.162,0-5.051-2.101-5.051-5.2c0-3.099,1.825-5.519,4.818-5.519
		c3.375,0,4.245,2.929,4.245,4.818c0,0.382-0.021,0.658-0.063,0.87H61.971z M67.447,51.771c0.021-1.167-0.488-3.014-2.589-3.014
		c-1.91,0-2.717,1.719-2.865,3.014H67.447z"/>
	<path class="st1" d="M75.813,56.016c0.573,0.34,1.549,0.722,2.483,0.722c1.337,0,1.974-0.658,1.974-1.528
		c0-0.891-0.531-1.358-1.889-1.868c-1.868-0.679-2.738-1.677-2.738-2.908c0-1.656,1.358-3.014,3.544-3.014
		c1.04,0,1.953,0.276,2.504,0.637l-0.445,1.358C80.843,49.161,80.1,48.8,79.145,48.8c-1.104,0-1.698,0.637-1.698,1.401
		c0,0.849,0.594,1.231,1.931,1.762c1.762,0.658,2.696,1.549,2.696,3.078c0,1.825-1.422,3.099-3.82,3.099
		c-1.125,0-2.165-0.297-2.887-0.722L75.813,56.016z"/>
	<path class="st1" d="M93.771,52.684c0,3.799-2.653,5.455-5.115,5.455c-2.759,0-4.924-2.038-4.924-5.285
		c0-3.417,2.271-5.434,5.094-5.434C91.776,47.42,93.771,49.564,93.771,52.684z M85.642,52.79c0,2.25,1.273,3.948,3.099,3.948
		c1.783,0,3.12-1.677,3.12-3.99c0-1.74-0.87-3.927-3.078-3.927C86.597,48.821,85.642,50.858,85.642,52.79z"/>
	<path class="st1" d="M96.13,42.835h1.847v6.453h0.042c0.658-1.146,1.847-1.868,3.502-1.868c2.568,0,4.351,2.123,4.351,5.222
		c0,3.672-2.334,5.497-4.627,5.497c-1.486,0-2.674-0.573-3.459-1.91h-0.042l-0.106,1.677h-1.592c0.042-0.7,0.085-1.74,0.085-2.653
		V42.835z M97.977,53.788c0,0.233,0.021,0.467,0.085,0.679c0.339,1.295,1.443,2.186,2.802,2.186c1.974,0,3.12-1.592,3.12-3.948
		c0-2.059-1.062-3.82-3.078-3.82c-1.252,0-2.441,0.891-2.823,2.292c-0.063,0.234-0.106,0.488-0.106,0.786V53.788z"/>
	<path class="st1" d="M108.21,50.837c0-1.21-0.021-2.25-0.085-3.205h1.634l0.085,2.038h0.064c0.467-1.379,1.613-2.25,2.865-2.25
		c0.191,0,0.34,0.021,0.509,0.042v1.762c-0.191-0.042-0.382-0.042-0.637-0.042c-1.316,0-2.25,0.977-2.504,2.377
		c-0.042,0.254-0.064,0.573-0.064,0.87v5.476h-1.868V50.837z"/>
	<path class="st1" d="M115.98,53.108c0.042,2.526,1.634,3.566,3.523,3.566c1.337,0,2.165-0.233,2.844-0.531l0.34,1.337
		c-0.658,0.297-1.805,0.658-3.439,0.658c-3.162,0-5.051-2.101-5.051-5.2c0-3.099,1.825-5.519,4.818-5.519
		c3.375,0,4.245,2.929,4.245,4.818c0,0.382-0.021,0.658-0.063,0.87H115.98z M121.456,51.771c0.021-1.167-0.488-3.014-2.589-3.014
		c-1.91,0-2.717,1.719-2.865,3.014H121.456z"/>
	<path class="st1" d="M130.142,43.812c1.125-0.191,2.462-0.318,3.927-0.318c2.652,0,4.542,0.637,5.794,1.783
		c1.295,1.167,2.038,2.823,2.038,5.137c0,2.334-0.743,4.245-2.06,5.561c-1.358,1.337-3.565,2.059-6.346,2.059
		c-1.337,0-2.42-0.064-3.354-0.17V43.812z M131.988,56.462c0.467,0.064,1.146,0.085,1.867,0.085c3.97,0,6.092-2.208,6.092-6.07
		c0.021-3.375-1.889-5.519-5.794-5.519c-0.955,0-1.677,0.085-2.165,0.191V56.462z"/>
	<path class="st1" d="M145.343,53.108c0.042,2.526,1.634,3.566,3.523,3.566c1.337,0,2.164-0.233,2.844-0.531l0.34,1.337
		c-0.658,0.297-1.805,0.658-3.438,0.658c-3.163,0-5.052-2.101-5.052-5.2c0-3.099,1.825-5.519,4.818-5.519
		c3.374,0,4.244,2.929,4.244,4.818c0,0.382-0.021,0.658-0.063,0.87H145.343z M150.818,51.771c0.021-1.167-0.488-3.014-2.59-3.014
		c-1.91,0-2.717,1.719-2.865,3.014H150.818z"/>
	<path class="st1" d="M154.685,56.016c0.573,0.34,1.549,0.722,2.483,0.722c1.337,0,1.974-0.658,1.974-1.528
		c0-0.891-0.53-1.358-1.889-1.868c-1.868-0.679-2.738-1.677-2.738-2.908c0-1.656,1.358-3.014,3.545-3.014
		c1.04,0,1.952,0.276,2.504,0.637l-0.445,1.358c-0.403-0.255-1.146-0.616-2.102-0.616c-1.104,0-1.698,0.637-1.698,1.401
		c0,0.849,0.595,1.231,1.932,1.762c1.762,0.658,2.695,1.549,2.695,3.078c0,1.825-1.422,3.099-3.82,3.099
		c-1.125,0-2.165-0.297-2.887-0.722L154.685,56.016z"/>
	<path class="st1" d="M170.562,55.443c0,0.891,0.043,1.762,0.148,2.462h-1.677l-0.148-1.295h-0.063
		c-0.573,0.807-1.677,1.528-3.142,1.528c-2.08,0-3.141-1.464-3.141-2.95c0-2.483,2.207-3.842,6.176-3.82v-0.212
		c0-0.828-0.233-2.377-2.334-2.356c-0.977,0-1.975,0.276-2.696,0.764l-0.424-1.252c0.849-0.531,2.101-0.892,3.396-0.892
		c3.142,0,3.905,2.144,3.905,4.182V55.443z M168.759,52.663c-2.038-0.042-4.352,0.318-4.352,2.313c0,1.231,0.807,1.783,1.741,1.783
		c1.358,0,2.229-0.849,2.525-1.719c0.063-0.212,0.085-0.425,0.085-0.594V52.663z"/>
	<path class="st1" d="M173.58,50.837c0-1.21-0.021-2.25-0.085-3.205h1.634l0.085,2.038h0.063c0.468-1.379,1.613-2.25,2.866-2.25
		c0.19,0,0.339,0.021,0.509,0.042v1.762c-0.19-0.042-0.382-0.042-0.637-0.042c-1.315,0-2.25,0.977-2.505,2.377
		c-0.042,0.254-0.063,0.573-0.063,0.87v5.476h-1.867V50.837z"/>
	<path class="st1" d="M180.606,50.837c0-1.21-0.021-2.25-0.085-3.205h1.634l0.085,2.038h0.063c0.468-1.379,1.613-2.25,2.865-2.25
		c0.191,0,0.34,0.021,0.51,0.042v1.762c-0.19-0.042-0.382-0.042-0.637-0.042c-1.315,0-2.25,0.977-2.505,2.377
		c-0.042,0.254-0.063,0.573-0.063,0.87v5.476h-1.867V50.837z"/>
	<path class="st1" d="M196.633,52.684c0,3.799-2.653,5.455-5.115,5.455c-2.759,0-4.924-2.038-4.924-5.285
		c0-3.417,2.271-5.434,5.094-5.434C194.638,47.42,196.633,49.564,196.633,52.684z M188.504,52.79c0,2.25,1.273,3.948,3.099,3.948
		c1.783,0,3.12-1.677,3.12-3.99c0-1.74-0.87-3.927-3.077-3.927C189.459,48.821,188.504,50.858,188.504,52.79z"/>
	<path class="st1" d="M198.992,42.835h1.867v15.07h-1.867V42.835z"/>
	<path class="st1" d="M204.002,42.835h1.867v15.07h-1.867V42.835z"/>
	<path class="st1" d="M218.308,52.684c0,3.799-2.653,5.455-5.115,5.455c-2.759,0-4.924-2.038-4.924-5.285
		c0-3.417,2.271-5.434,5.094-5.434C216.312,47.42,218.308,49.564,218.308,52.684z M210.179,52.79c0,2.25,1.273,3.948,3.099,3.948
		c1.783,0,3.12-1.677,3.12-3.99c0-1.74-0.87-3.927-3.077-3.927C211.134,48.821,210.179,50.858,210.179,52.79z"/>
	<path class="st1" d="M3.459,69.076v5.985h6.919v-5.985h1.868v14.306h-1.868v-6.707H3.459v6.707H1.592V69.076H3.459z"/>
	<path class="st1" d="M23.988,80.559c0,1.083,0.021,2.017,0.085,2.823h-1.656l-0.106-1.677h-0.042
		c-0.467,0.827-1.571,1.91-3.396,1.91c-1.613,0-3.544-0.913-3.544-4.5v-6.007h1.868v5.667c0,1.953,0.616,3.29,2.292,3.29
		c1.252,0,2.123-0.87,2.462-1.719c0.106-0.255,0.17-0.595,0.17-0.955v-6.283h1.868V80.559z"/>
	<path class="st1" d="M27.089,75.89c0-1.083-0.042-1.932-0.085-2.781h1.634l0.085,1.677h0.064c0.573-0.976,1.528-1.889,3.247-1.889
		c1.38,0,2.441,0.849,2.887,2.059h0.042c0.318-0.594,0.743-1.019,1.167-1.337c0.616-0.467,1.273-0.722,2.25-0.722
		c1.379,0,3.396,0.892,3.396,4.457v6.028h-1.826v-5.795c0-1.995-0.743-3.162-2.229-3.162c-1.083,0-1.889,0.785-2.229,1.677
		c-0.085,0.275-0.148,0.594-0.148,0.934v6.347h-1.826v-6.155c0-1.635-0.722-2.802-2.144-2.802c-1.146,0-2.017,0.934-2.313,1.867
		c-0.106,0.255-0.148,0.595-0.148,0.913v6.177h-1.826V75.89z"/>
	<path class="st1" d="M52.012,80.92c0,0.891,0.042,1.762,0.148,2.462h-1.677l-0.148-1.295h-0.064
		c-0.573,0.807-1.677,1.528-3.141,1.528c-2.08,0-3.142-1.465-3.142-2.95c0-2.483,2.208-3.842,6.177-3.82v-0.213
		c0-0.827-0.233-2.377-2.335-2.355c-0.976,0-1.974,0.275-2.695,0.764l-0.425-1.252c0.849-0.531,2.102-0.892,3.396-0.892
		c3.142,0,3.906,2.144,3.906,4.182V80.92z M50.208,78.139c-2.038-0.042-4.351,0.318-4.351,2.313c0,1.231,0.806,1.783,1.74,1.783
		c1.358,0,2.229-0.849,2.526-1.719c0.063-0.213,0.085-0.425,0.085-0.595V78.139z"/>
	<path class="st1" d="M55.028,75.89c0-1.083-0.021-1.932-0.085-2.781h1.656l0.106,1.698h0.042c0.509-0.955,1.698-1.91,3.396-1.91
		c1.422,0,3.629,0.849,3.629,4.372v6.113h-1.868V77.46c0-1.655-0.615-3.035-2.377-3.035c-1.21,0-2.165,0.87-2.505,1.91
		c-0.085,0.233-0.127,0.552-0.127,0.87v6.177h-1.868V75.89z"/>
	<path class="st1" d="M76.108,78.16c0,3.8-2.653,5.455-5.115,5.455c-2.759,0-4.924-2.038-4.924-5.285
		c0-3.417,2.271-5.434,5.094-5.434C74.112,72.896,76.108,75.04,76.108,78.16z M67.979,78.267c0,2.25,1.273,3.947,3.099,3.947
		c1.783,0,3.12-1.677,3.12-3.99c0-1.74-0.87-3.927-3.078-3.927C68.934,74.297,67.979,76.335,67.979,78.267z"/>
	<path class="st1" d="M91.33,77.332h-5.264v3.396h5.879v2.653h-9.106V69.076h8.809v2.653h-5.582V74.7h5.264V77.332z"/>
	<path class="st1" d="M94.134,68.312h3.226v15.07h-3.226V68.312z"/>
	<path class="st1" d="M104.473,80.049c0.849,0.446,2.208,0.892,3.587,0.892c1.485,0,2.271-0.615,2.271-1.549
		c0-0.892-0.679-1.401-2.398-1.995c-2.377-0.85-3.948-2.165-3.948-4.245c0-2.441,2.059-4.288,5.412-4.288
		c1.634,0,2.802,0.318,3.651,0.722l-0.722,2.589c-0.552-0.276-1.592-0.68-2.972-0.68c-1.401,0-2.08,0.658-2.08,1.38
		c0,0.913,0.786,1.316,2.653,2.017c2.526,0.934,3.693,2.25,3.693,4.267c0,2.398-1.825,4.436-5.752,4.436
		c-1.634,0-3.247-0.445-4.054-0.892L104.473,80.049z"/>
	<path class="st1" d="M124.533,80.877c0,0.977,0.043,1.932,0.17,2.505h-2.908l-0.19-1.04h-0.063
		c-0.68,0.827-1.741,1.273-2.972,1.273c-2.102,0-3.354-1.528-3.354-3.184c0-2.696,2.419-3.97,6.092-3.97v-0.127
		c0-0.573-0.298-1.358-1.89-1.358c-1.061,0-2.186,0.36-2.865,0.785l-0.594-2.08c0.722-0.403,2.144-0.934,4.033-0.934
		c3.46,0,4.542,2.037,4.542,4.5V80.877z M121.413,78.479c-1.698,0-3.014,0.403-3.014,1.635c0,0.827,0.552,1.23,1.273,1.23
		c0.785,0,1.465-0.53,1.677-1.188c0.042-0.17,0.063-0.36,0.063-0.552V78.479z"/>
	<path class="st1" d="M127.105,68.312h3.226v15.07h-3.226V68.312z"/>
	<path class="st1" d="M135.342,73.003l1.4,4.817c0.255,0.892,0.425,1.698,0.595,2.526h0.063c0.17-0.85,0.34-1.635,0.573-2.526
		l1.337-4.817h3.396l-3.863,10.379h-3.227l-3.777-10.379H135.342z"/>
	<path class="st1" d="M152.686,80.877c0,0.977,0.042,1.932,0.17,2.505h-2.908l-0.191-1.04h-0.063
		c-0.679,0.827-1.74,1.273-2.972,1.273c-2.101,0-3.354-1.528-3.354-3.184c0-2.696,2.42-3.97,6.092-3.97v-0.127
		c0-0.573-0.297-1.358-1.889-1.358c-1.062,0-2.187,0.36-2.865,0.785l-0.595-2.08c0.722-0.403,2.144-0.934,4.033-0.934
		c3.459,0,4.542,2.037,4.542,4.5V80.877z M149.565,78.479c-1.698,0-3.015,0.403-3.015,1.635c0,0.827,0.553,1.23,1.274,1.23
		c0.785,0,1.464-0.53,1.677-1.188c0.042-0.17,0.063-0.36,0.063-0.552V78.479z"/>
	<path class="st1" d="M165.317,68.312v11.971c0,1.167,0.042,2.398,0.085,3.099h-2.865l-0.128-1.507h-0.063
		c-0.637,1.146-1.91,1.74-3.247,1.74c-2.462,0-4.437-2.102-4.437-5.328c-0.021-3.502,2.165-5.539,4.648-5.539
		c1.295,0,2.271,0.467,2.738,1.167h0.042v-5.603H165.317z M162.091,77.396c0-0.17,0-0.403-0.042-0.595
		c-0.191-0.849-0.892-1.57-1.89-1.57c-1.485,0-2.229,1.315-2.229,2.95c0,1.762,0.87,2.865,2.208,2.865
		c0.934,0,1.697-0.637,1.889-1.55c0.043-0.233,0.063-0.488,0.063-0.742V77.396z"/>
	<path class="st1" d="M178.161,78.075c0,3.8-2.695,5.54-5.476,5.54c-3.035,0-5.37-1.995-5.37-5.349c0-3.375,2.208-5.519,5.562-5.519
		C176.039,72.748,178.161,74.934,178.161,78.075z M170.648,78.182c0,1.783,0.742,3.12,2.122,3.12c1.273,0,2.059-1.253,2.059-3.142
		c0-1.528-0.594-3.099-2.059-3.099C171.242,75.062,170.648,76.653,170.648,78.182z"/>
	<path class="st1" d="M180.16,76.42c0-1.528-0.021-2.526-0.085-3.417h2.759l0.128,1.91h0.085c0.53-1.528,1.782-2.165,2.802-2.165
		c0.297,0,0.445,0.021,0.679,0.063v3.035c-0.255-0.042-0.51-0.085-0.87-0.085c-1.188,0-1.995,0.637-2.207,1.635
		c-0.043,0.212-0.064,0.467-0.064,0.722v5.264h-3.226V76.42z"/>
	<path class="st1" d="M192.41,83.382v-0.637l1.273-1.316c3.842-3.757,5.519-5.688,5.519-8.065c0-1.57-0.658-3.12-2.993-3.12
		c-1.315,0-2.335,0.68-2.929,1.188l-0.403-0.7c0.892-0.807,2.102-1.379,3.523-1.379c2.865,0,3.842,2.165,3.842,3.799
		c0,2.717-1.975,4.902-5.434,8.32l-0.977,0.997v0.043h6.792v0.87H192.41z"/>
	<path class="st1" d="M211.324,76.292c0,4.946-1.762,7.323-4.521,7.323c-2.165,0-4.139-2.123-4.202-7.068
		c0-5.009,2.187-7.195,4.521-7.195C209.541,69.352,211.324,71.538,211.324,76.292z M203.641,76.568c0,3.842,1.315,6.197,3.29,6.197
		c2.313,0,3.354-2.61,3.354-6.367c0-3.608-0.977-6.197-3.333-6.197C205.062,70.201,203.641,72.493,203.641,76.568z"/>
	<path class="st1" d="M217.163,70.625h-0.042l-2.25,1.316l-0.255-0.807l2.611-1.549h0.934v13.796h-0.998V70.625z"/>
	<path class="st1" d="M226.25,76.017c-1.677-0.722-2.335-1.932-2.335-3.12c0-2.08,1.698-3.544,3.927-3.544
		c2.313,0,3.672,1.549,3.672,3.311c0,1.146-0.552,2.462-2.44,3.311v0.085c1.952,0.765,2.929,2.06,2.929,3.651
		c0,2.334-2.037,3.905-4.33,3.905c-2.462,0-4.287-1.571-4.287-3.672c0-1.783,1.083-3.078,2.887-3.842L226.25,76.017z
		 M230.962,79.858c0-1.953-1.315-2.823-3.544-3.46c-1.953,0.573-2.993,1.825-2.993,3.332c-0.085,1.635,1.146,3.035,3.247,3.035
		C229.688,82.766,230.962,81.535,230.962,79.858z M224.913,72.748c-0.021,1.655,1.167,2.483,3.035,2.95
		c1.465-0.51,2.525-1.443,2.525-2.95c0-1.253-0.764-2.568-2.737-2.568C225.911,70.18,224.913,71.368,224.913,72.748z"/>
</g>
<g>
	<rect x="0.886" y="103.228" class="st0" width="151.25" height="85.173"/>
	<path d="M1.667,103.666c0.506-0.099,1.111-0.153,1.76-0.153c1.199,0,2.058,0.286,2.63,0.813c0.638,0.572,1.034,1.464,1.034,2.762
		c0,1.364-0.385,2.332-1.013,2.959c-0.638,0.649-1.649,0.99-2.915,0.99c-0.583,0-1.078-0.021-1.496-0.077V103.666z M2.591,110.245
		c0.209,0.033,0.495,0.033,0.771,0.033c1.716,0.011,2.761-1.001,2.761-3.157c0.012-1.782-0.857-2.872-2.629-2.872
		c-0.385,0-0.693,0.045-0.902,0.089V110.245z"/>
	<path d="M10.137,103.392l-1.287,1.551H8.202l0.935-1.551H10.137z M8.256,110.982v-5.325H9.18v5.325H8.256z"/>
	<path d="M14.12,109.729c0,0.439,0.012,0.891,0.077,1.254h-0.836l-0.077-0.638H13.25c-0.274,0.406-0.78,0.748-1.463,0.748
		c-0.957,0-1.507-0.716-1.507-1.529c0-1.299,1.111-1.97,2.915-1.959v-0.132c0-0.517-0.143-1.221-1.1-1.21
		c-0.451,0-0.902,0.132-1.232,0.353l-0.209-0.628c0.374-0.241,0.968-0.429,1.595-0.429c1.452,0,1.87,0.99,1.87,2.091V109.729z
		 M13.218,108.254c-0.869-0.011-2.014,0.144-2.014,1.21c0,0.649,0.396,0.925,0.825,0.925c0.605,0,1.012-0.386,1.145-0.858
		c0.032-0.099,0.044-0.209,0.044-0.309V108.254z"/>
	<path d="M15.407,106.494c0-0.386,0.264-0.672,0.627-0.672c0.374,0,0.616,0.275,0.616,0.672c0,0.385-0.242,0.671-0.639,0.671
		C15.66,107.165,15.407,106.879,15.407,106.494z M15.407,110.421c0-0.385,0.264-0.671,0.627-0.671c0.374,0,0.616,0.275,0.616,0.671
		c0,0.386-0.242,0.672-0.639,0.672C15.66,111.093,15.407,110.807,15.407,110.421z"/>
	<path d="M19.971,105.702l1.122,3.3c0.165,0.451,0.309,0.902,0.429,1.343h0.033c0.11-0.418,0.275-0.881,0.44-1.343l1.122-3.3h0.528
		l-1.915,5.28h-0.439l-1.849-5.28H19.971z"/>
	<path d="M25.262,104.238c0,0.253-0.154,0.44-0.418,0.44c-0.221,0-0.386-0.188-0.386-0.44c0-0.242,0.176-0.439,0.407-0.439
		C25.108,103.799,25.262,103.996,25.262,104.238z M24.602,110.982v-5.28h0.506v5.28H24.602z"/>
	<path d="M26.868,108.243c0,1.826,0.869,2.398,1.804,2.398c0.649,0,1.013-0.132,1.276-0.275l0.121,0.396
		c-0.209,0.132-0.715,0.318-1.463,0.318c-1.408,0-2.245-1.1-2.245-2.662c0-1.738,0.892-2.827,2.135-2.827
		c1.529,0,1.849,1.519,1.849,2.332c0,0.132,0,0.22-0.012,0.319H26.868z M29.805,107.836c0.021-0.902-0.363-1.815-1.376-1.815
		c-1.001,0-1.452,0.99-1.54,1.815H29.805z"/>
	<path d="M31.565,107.176c0-0.484-0.022-1.012-0.044-1.474h0.473l0.022,1.001h0.021c0.209-0.605,0.727-1.111,1.397-1.111
		c0.065,0,0.121,0.011,0.176,0.021v0.495c-0.055-0.011-0.121-0.011-0.198-0.011c-0.715,0-1.199,0.649-1.309,1.431
		c-0.022,0.153-0.033,0.318-0.033,0.483v2.971h-0.506V107.176z"/>
	<path d="M34.601,106.956c0-0.539-0.022-0.848-0.044-1.254h0.473l0.033,0.868h0.021c0.253-0.55,0.848-0.979,1.617-0.979
		c0.528,0,1.65,0.297,1.65,2.079v3.312h-0.506v-3.224c0-0.902-0.297-1.728-1.287-1.728c-0.649,0-1.222,0.484-1.397,1.178
		c-0.033,0.132-0.055,0.297-0.055,0.462v3.312h-0.506V106.956z"/>
	<path d="M40.08,108.243c0,1.826,0.869,2.398,1.804,2.398c0.649,0,1.013-0.132,1.276-0.275l0.121,0.396
		c-0.209,0.132-0.715,0.318-1.463,0.318c-1.408,0-2.245-1.1-2.245-2.662c0-1.738,0.892-2.827,2.135-2.827
		c1.529,0,1.849,1.519,1.849,2.332c0,0.132,0,0.22-0.012,0.319H40.08z M43.016,107.836c0.022-0.902-0.362-1.815-1.375-1.815
		c-1.001,0-1.452,0.99-1.54,1.815H43.016z"/>
	<path d="M44.568,110.301c0.253,0.165,0.627,0.341,1.066,0.341c0.748,0,1.134-0.43,1.134-0.99c0-0.55-0.286-0.869-0.99-1.199
		c-0.781-0.363-1.254-0.803-1.254-1.463c0-0.771,0.594-1.397,1.518-1.397c0.462,0,0.836,0.143,1.078,0.319l-0.209,0.418
		c-0.187-0.144-0.484-0.298-0.935-0.298c-0.628,0-0.958,0.419-0.958,0.881c0,0.517,0.309,0.748,0.969,1.078
		c0.748,0.341,1.287,0.77,1.287,1.573c0,0.946-0.693,1.518-1.672,1.518c-0.463,0-0.902-0.143-1.222-0.352L44.568,110.301z"/>
	<path d="M50.386,110.982v-0.319l0.616-0.704c1.64-1.716,2.597-2.894,2.597-4.213c0-0.848-0.353-1.573-1.408-1.573
		c-0.649,0-1.111,0.341-1.364,0.561l-0.209-0.363c0.385-0.352,0.957-0.648,1.672-0.648c1.32,0,1.826,1.012,1.826,1.947
		c0,1.386-0.979,2.607-2.508,4.258l-0.506,0.594v0.021h3.201v0.44H50.386z"/>
	<path d="M59.407,107.341c0,2.586-0.869,3.752-2.167,3.752c-1.023,0-1.98-1.078-2.003-3.664c0-2.607,1.023-3.707,2.168-3.707
		C58.527,103.722,59.407,104.821,59.407,107.341z M55.765,107.439c0,1.926,0.583,3.224,1.552,3.224c1.078,0,1.562-1.396,1.562-3.289
		c0-1.837-0.462-3.224-1.562-3.224C56.392,104.15,55.765,105.438,55.765,107.439z"/>
	<path d="M66.579,103.227v6.579c0,0.341,0.021,0.857,0.044,1.177h-0.451l-0.033-0.913h-0.033c-0.241,0.528-0.792,1.023-1.649,1.023
		c-1.134,0-2.036-1.002-2.036-2.674c0-1.804,0.979-2.827,2.124-2.827c0.736,0,1.265,0.374,1.507,0.858h0.022v-3.224H66.579z
		 M66.073,107.759c0-0.132-0.012-0.308-0.045-0.451c-0.132-0.704-0.704-1.287-1.452-1.287c-1.045,0-1.639,1.045-1.639,2.354
		c0,1.188,0.506,2.288,1.606,2.288c0.615,0,1.254-0.396,1.484-1.32c0.033-0.132,0.045-0.264,0.045-0.418V107.759z"/>
	<path d="M68.328,108.243c0,1.826,0.869,2.398,1.804,2.398c0.649,0,1.013-0.132,1.276-0.275l0.121,0.396
		c-0.209,0.132-0.715,0.318-1.463,0.318c-1.408,0-2.245-1.1-2.245-2.662c0-1.738,0.892-2.827,2.135-2.827
		c1.529,0,1.849,1.519,1.849,2.332c0,0.132,0,0.22-0.012,0.319H68.328z M71.264,107.836c0.022-0.902-0.362-1.815-1.375-1.815
		c-1.001,0-1.452,0.99-1.54,1.815H71.264z"/>
	<path d="M73.959,112.831c0.396-0.044,0.759-0.165,0.99-0.451c0.242-0.33,0.353-0.737,0.353-2.058v-4.62h0.506v4.928
		c0,0.99-0.11,1.585-0.518,2.058c-0.352,0.396-0.946,0.55-1.254,0.562L73.959,112.831z M75.961,104.238
		c0,0.242-0.143,0.44-0.418,0.44c-0.23,0-0.385-0.198-0.385-0.44s0.176-0.439,0.418-0.439
		C75.808,103.799,75.961,103.996,75.961,104.238z"/>
	<path d="M81.088,109.685c0,0.506,0.022,0.913,0.044,1.298H80.66l-0.033-0.825h-0.022c-0.22,0.407-0.759,0.936-1.595,0.936
		c-0.727,0-1.617-0.44-1.617-2.212v-3.179h0.506v3.08c0,1.078,0.286,1.87,1.232,1.87c0.737,0,1.21-0.572,1.375-1.023
		c0.044-0.165,0.077-0.362,0.077-0.561v-3.366h0.506V109.685z"/>
	<path d="M82.716,103.227h0.506v7.756h-0.506V103.227z"/>
	<path d="M85.565,104.238c0,0.253-0.154,0.44-0.418,0.44c-0.221,0-0.386-0.188-0.386-0.44c0-0.242,0.176-0.439,0.407-0.439
		C85.411,103.799,85.565,103.996,85.565,104.238z M84.905,110.982v-5.28h0.506v5.28H84.905z"/>
	<path d="M91.065,108.309c0,1.959-1.178,2.784-2.245,2.784c-1.188,0-2.156-0.979-2.156-2.718c0-1.849,1.067-2.783,2.233-2.783
		C90.14,105.592,91.065,106.593,91.065,108.309z M87.181,108.354c0,1.177,0.638,2.31,1.672,2.31s1.694-1.133,1.694-2.343
		c0-0.925-0.429-2.3-1.684-2.3C87.654,106.021,87.181,107.297,87.181,108.354z"/>
	<path d="M98.281,103.227v6.579c0,0.341,0.021,0.857,0.044,1.177h-0.451l-0.033-0.913h-0.033c-0.242,0.528-0.792,1.023-1.65,1.023
		c-1.133,0-2.035-1.002-2.035-2.674c0-1.804,0.979-2.827,2.124-2.827c0.736,0,1.265,0.374,1.507,0.858h0.022v-3.224H98.281z
		 M97.775,107.759c0-0.132-0.012-0.308-0.045-0.451c-0.132-0.704-0.704-1.287-1.452-1.287c-1.045,0-1.639,1.045-1.639,2.354
		c0,1.188,0.506,2.288,1.606,2.288c0.616,0,1.254-0.396,1.484-1.32c0.033-0.132,0.045-0.264,0.045-0.418V107.759z"/>
	<path d="M100.03,108.243c0,1.826,0.869,2.398,1.804,2.398c0.649,0,1.013-0.132,1.276-0.275l0.121,0.396
		c-0.209,0.132-0.715,0.318-1.463,0.318c-1.408,0-2.245-1.1-2.245-2.662c0-1.738,0.892-2.827,2.135-2.827
		c1.529,0,1.849,1.519,1.849,2.332c0,0.132,0,0.22-0.012,0.319H100.03z M102.967,107.836c0.021-0.902-0.363-1.815-1.376-1.815
		c-1.001,0-1.452,0.99-1.54,1.815H102.967z"/>
	<path d="M106.584,110.982v-0.319l0.616-0.704c1.64-1.716,2.597-2.894,2.597-4.213c0-0.848-0.353-1.573-1.408-1.573
		c-0.649,0-1.111,0.341-1.364,0.561l-0.209-0.363c0.385-0.352,0.957-0.648,1.672-0.648c1.32,0,1.826,1.012,1.826,1.947
		c0,1.386-0.979,2.607-2.508,4.258l-0.506,0.594v0.021h3.201v0.44H106.584z"/>
	<path d="M115.605,107.341c0,2.586-0.869,3.752-2.167,3.752c-1.023,0-1.98-1.078-2.003-3.664c0-2.607,1.023-3.707,2.168-3.707
		C114.725,103.722,115.605,104.821,115.605,107.341z M111.963,107.439c0,1.926,0.583,3.224,1.551,3.224
		c1.079,0,1.562-1.396,1.562-3.289c0-1.837-0.462-3.224-1.562-3.224C112.59,104.15,111.963,105.438,111.963,107.439z"/>
	<path d="M118.442,104.37h-0.021l-1.166,0.693l-0.133-0.396l1.376-0.837h0.439v7.151h-0.495V104.37z"/>
	<path d="M122.765,107.165c-0.781-0.385-1.144-1.023-1.144-1.64c0-1.067,0.825-1.804,1.859-1.804c1.155,0,1.738,0.847,1.738,1.683
		c0,0.649-0.309,1.299-1.178,1.738v0.044c0.902,0.418,1.408,1.078,1.408,1.915c0,1.144-0.913,1.991-2.058,1.991
		c-1.254,0-2.046-0.881-2.046-1.859c0-0.969,0.594-1.629,1.419-2.035V107.165z M124.933,109.178c0-0.979-0.639-1.44-1.64-1.814
		c-0.913,0.33-1.419,1.012-1.419,1.76c-0.033,0.869,0.55,1.54,1.518,1.54C124.294,110.663,124.933,110.113,124.933,109.178z
		 M122.127,105.448c-0.011,0.858,0.594,1.276,1.397,1.541c0.692-0.298,1.177-0.793,1.177-1.529c0-0.693-0.385-1.31-1.276-1.31
		C122.611,104.15,122.127,104.723,122.127,105.448z"/>
	<path d="M2.591,116.768v3.124h3.136v-3.124h0.924v7.415H5.727v-3.477H2.591v3.477H1.667v-7.415H2.591z"/>
	<path d="M12.536,121.487c0,1.991-1.243,2.806-2.388,2.806c-1.298,0-2.31-1.002-2.31-2.739c0-1.827,1.078-2.795,2.387-2.795
		C11.579,118.759,12.536,119.804,12.536,121.487z M8.784,121.531c0,1.078,0.518,2.046,1.408,2.046c0.869,0,1.397-0.979,1.397-2.068
		c0-0.869-0.363-2.035-1.397-2.035C9.169,119.474,8.784,120.585,8.784,121.531z"/>
	<path d="M13.668,120.431c0-0.571-0.022-1.11-0.044-1.573h0.813l0.044,0.99h0.033c0.221-0.648,0.771-1.089,1.364-1.089
		c0.1,0,0.165,0,0.242,0.022v0.901c-0.077-0.021-0.165-0.021-0.275-0.021c-0.638,0-1.1,0.506-1.221,1.188
		c-0.022,0.143-0.033,0.297-0.033,0.462v2.871h-0.924V120.431z"/>
	<path d="M20.412,122.929c0,0.439,0.012,0.891,0.077,1.254h-0.836l-0.077-0.638h-0.033c-0.274,0.406-0.78,0.748-1.463,0.748
		c-0.957,0-1.507-0.716-1.507-1.529c0-1.299,1.111-1.97,2.915-1.959v-0.132c0-0.517-0.143-1.221-1.1-1.21
		c-0.451,0-0.902,0.132-1.232,0.353l-0.209-0.628c0.374-0.241,0.968-0.429,1.595-0.429c1.452,0,1.87,0.99,1.87,2.091V122.929z
		 M19.51,121.454c-0.869-0.011-2.014,0.144-2.014,1.21c0,0.649,0.396,0.925,0.825,0.925c0.605,0,1.012-0.386,1.145-0.858
		c0.032-0.099,0.044-0.209,0.044-0.308V121.454z"/>
	<path d="M21.699,119.694c0-0.386,0.264-0.672,0.627-0.672c0.374,0,0.616,0.275,0.616,0.672c0,0.385-0.242,0.671-0.639,0.671
		C21.952,120.365,21.699,120.079,21.699,119.694z M21.699,123.621c0-0.385,0.264-0.671,0.627-0.671c0.374,0,0.616,0.275,0.616,0.671
		c0,0.386-0.242,0.672-0.639,0.672C21.952,124.293,21.699,124.007,21.699,123.621z"/>
	<path d="M27.396,120.365c-0.78-0.385-1.144-1.023-1.144-1.64c0-1.067,0.825-1.804,1.859-1.804c1.155,0,1.738,0.847,1.738,1.683
		c0,0.649-0.309,1.299-1.178,1.738v0.044c0.902,0.418,1.408,1.078,1.408,1.915c0,1.144-0.913,1.991-2.057,1.991
		c-1.255,0-2.047-0.881-2.047-1.859c0-0.969,0.594-1.629,1.419-2.035V120.365z M29.564,122.378c0-0.979-0.639-1.44-1.64-1.814
		c-0.913,0.33-1.419,1.012-1.419,1.76c-0.033,0.869,0.55,1.54,1.519,1.54C28.925,123.863,29.564,123.313,29.564,122.378z
		 M26.758,118.648c-0.011,0.858,0.594,1.276,1.397,1.541c0.692-0.298,1.177-0.793,1.177-1.529c0-0.693-0.385-1.31-1.276-1.31
		C27.243,117.351,26.758,117.923,26.758,118.648z"/>
	<path d="M31.081,119.672c0-0.275,0.176-0.484,0.429-0.484c0.265,0,0.43,0.209,0.43,0.484c0,0.264-0.165,0.474-0.44,0.474
		C31.256,120.146,31.081,119.936,31.081,119.672z M31.081,123.819c0-0.274,0.176-0.483,0.429-0.483c0.265,0,0.43,0.209,0.43,0.483
		c0,0.265-0.165,0.474-0.44,0.474C31.256,124.293,31.081,124.084,31.081,123.819z"/>
	<path d="M33.039,123.445c0.242,0.165,0.771,0.407,1.387,0.407c1.254,0,1.672-0.891,1.661-1.661
		c-0.011-1.133-0.902-1.684-1.914-1.684h-0.374v-0.418h0.374c0.704,0,1.661-0.462,1.661-1.452c0-0.726-0.385-1.276-1.266-1.276
		c-0.506,0-0.957,0.242-1.243,0.462l-0.197-0.385c0.308-0.253,0.891-0.517,1.507-0.517c1.199,0,1.728,0.792,1.728,1.639
		c0,0.727-0.43,1.375-1.255,1.705v0.022c0.804,0.165,1.508,0.803,1.508,1.893c0,1.11-0.748,2.112-2.244,2.112
		c-0.628,0-1.232-0.221-1.529-0.44L33.039,123.445z"/>
	<path d="M41.894,120.541c0,2.585-0.869,3.752-2.167,3.752c-1.023,0-1.98-1.078-2.003-3.664c0-2.607,1.023-3.707,2.168-3.707
		C41.014,116.922,41.894,118.021,41.894,120.541z M38.252,120.64c0,1.926,0.583,3.224,1.551,3.224c1.079,0,1.562-1.396,1.562-3.289
		c0-1.837-0.462-3.224-1.562-3.224C38.879,117.351,38.252,118.638,38.252,120.64z"/>
	<path d="M48.285,122.95c0,0.407,0.011,0.848,0.065,1.232h-0.462l-0.065-0.704H47.79c-0.242,0.407-0.748,0.814-1.475,0.814
		c-0.935,0-1.44-0.693-1.44-1.452c0-1.232,1.045-1.926,2.904-1.915v-0.153c0-0.639-0.11-1.552-1.222-1.541
		c-0.396,0-0.825,0.11-1.155,0.353l-0.153-0.374c0.396-0.286,0.924-0.418,1.386-0.418c1.276,0,1.65,0.924,1.65,1.969V122.95z
		 M47.779,121.355c-0.925-0.022-2.365,0.109-2.365,1.419c0,0.771,0.462,1.089,0.957,1.089c0.748,0,1.21-0.495,1.364-1.045
		c0.032-0.11,0.044-0.231,0.044-0.319V121.355z"/>
	<path d="M49.637,123.819c0-0.274,0.176-0.483,0.429-0.483c0.265,0,0.43,0.209,0.43,0.483c0,0.265-0.165,0.474-0.44,0.474
		C49.813,124.293,49.637,124.084,49.637,123.819z"/>
	<path d="M51.772,120.156c0-0.539-0.022-0.848-0.044-1.255h0.473l0.033,0.858h0.021c0.286-0.561,0.76-0.968,1.541-0.968
		c0.638,0,1.166,0.407,1.375,1.067h0.021c0.154-0.309,0.341-0.539,0.528-0.693c0.308-0.242,0.627-0.374,1.111-0.374
		c0.528,0,1.562,0.319,1.562,2.134v3.257h-0.507v-3.168c0-1.057-0.352-1.783-1.231-1.783c-0.583,0-1.067,0.451-1.243,1.023
		c-0.044,0.165-0.077,0.341-0.077,0.528v3.399h-0.506v-3.378c0-0.88-0.363-1.573-1.178-1.573c-0.627,0-1.145,0.518-1.31,1.155
		c-0.044,0.154-0.065,0.33-0.065,0.507v3.289h-0.506V120.156z"/>
	<path d="M59.768,123.819c0-0.274,0.176-0.483,0.429-0.483c0.265,0,0.43,0.209,0.43,0.483c0,0.265-0.165,0.474-0.44,0.474
		C59.944,124.293,59.768,124.084,59.768,123.819z"/>
	<path d="M67.095,122.95c0,0.407,0.011,0.848,0.065,1.232h-0.462l-0.065-0.704H66.6c-0.242,0.407-0.748,0.814-1.475,0.814
		c-0.935,0-1.44-0.693-1.44-1.452c0-1.232,1.045-1.926,2.904-1.915v-0.153c0-0.639-0.11-1.552-1.222-1.541
		c-0.396,0-0.825,0.11-1.155,0.353l-0.153-0.374c0.396-0.286,0.924-0.418,1.386-0.418c1.276,0,1.65,0.924,1.65,1.969V122.95z
		 M66.589,121.355c-0.925-0.022-2.365,0.109-2.365,1.419c0,0.771,0.462,1.089,0.957,1.089c0.748,0,1.21-0.495,1.364-1.045
		c0.032-0.11,0.044-0.231,0.044-0.319V121.355z"/>
	<path d="M72.518,117.57h-0.021l-1.166,0.693l-0.133-0.396l1.376-0.837h0.439v7.151h-0.495V117.57z"/>
	<path d="M77.457,117.57h-0.021l-1.166,0.693l-0.133-0.396l1.376-0.837h0.439v7.151h-0.495V117.57z"/>
	<path d="M80.525,119.672c0-0.275,0.176-0.484,0.429-0.484c0.265,0,0.43,0.209,0.43,0.484c0,0.264-0.165,0.474-0.44,0.474
		C80.701,120.146,80.525,119.936,80.525,119.672z M80.525,123.819c0-0.274,0.176-0.483,0.429-0.483c0.265,0,0.43,0.209,0.43,0.483
		c0,0.265-0.165,0.474-0.44,0.474C80.701,124.293,80.525,124.084,80.525,123.819z"/>
	<path d="M82.483,123.445c0.242,0.165,0.771,0.407,1.387,0.407c1.254,0,1.672-0.891,1.661-1.661
		c-0.011-1.133-0.902-1.684-1.914-1.684h-0.374v-0.418h0.374c0.704,0,1.661-0.462,1.661-1.452c0-0.726-0.385-1.276-1.266-1.276
		c-0.506,0-0.957,0.242-1.243,0.462l-0.197-0.385c0.308-0.253,0.891-0.517,1.507-0.517c1.199,0,1.728,0.792,1.728,1.639
		c0,0.727-0.43,1.375-1.255,1.705v0.022c0.804,0.165,1.508,0.803,1.508,1.893c0,1.11-0.748,2.112-2.244,2.112
		c-0.628,0-1.232-0.221-1.529-0.44L82.483,123.445z"/>
	<path d="M91.338,120.541c0,2.585-0.869,3.752-2.167,3.752c-1.023,0-1.98-1.078-2.003-3.664c0-2.607,1.023-3.707,2.168-3.707
		C90.458,116.922,91.338,118.021,91.338,120.541z M87.697,120.64c0,1.926,0.583,3.224,1.552,3.224c1.078,0,1.562-1.396,1.562-3.289
		c0-1.837-0.462-3.224-1.562-3.224C88.324,117.351,87.697,118.638,87.697,120.64z"/>
	<path d="M97.729,122.95c0,0.407,0.011,0.848,0.066,1.232h-0.463l-0.065-0.704h-0.033c-0.242,0.407-0.748,0.814-1.475,0.814
		c-0.935,0-1.44-0.693-1.44-1.452c0-1.232,1.045-1.926,2.904-1.915v-0.153c0-0.639-0.11-1.552-1.222-1.541
		c-0.396,0-0.825,0.11-1.155,0.353l-0.153-0.374c0.396-0.286,0.924-0.418,1.386-0.418c1.276,0,1.65,0.924,1.65,1.969V122.95z
		 M97.223,121.355c-0.925-0.022-2.365,0.109-2.365,1.419c0,0.771,0.462,1.089,0.957,1.089c0.748,0,1.21-0.495,1.364-1.045
		c0.032-0.11,0.044-0.231,0.044-0.319V121.355z"/>
	<path d="M99.082,123.819c0-0.274,0.176-0.483,0.429-0.483c0.265,0,0.43,0.209,0.43,0.483c0,0.265-0.165,0.474-0.44,0.474
		C99.257,124.293,99.082,124.084,99.082,123.819z"/>
	<path d="M101.216,120.156c0-0.539-0.022-0.848-0.044-1.255h0.473l0.033,0.858h0.021c0.286-0.561,0.76-0.968,1.541-0.968
		c0.638,0,1.166,0.407,1.375,1.067h0.021c0.154-0.309,0.342-0.539,0.528-0.693c0.308-0.242,0.627-0.374,1.111-0.374
		c0.528,0,1.562,0.319,1.562,2.134v3.257h-0.507v-3.168c0-1.057-0.352-1.783-1.231-1.783c-0.583,0-1.067,0.451-1.243,1.023
		c-0.044,0.165-0.077,0.341-0.077,0.528v3.399h-0.507v-3.378c0-0.88-0.362-1.573-1.177-1.573c-0.627,0-1.145,0.518-1.31,1.155
		c-0.044,0.154-0.065,0.33-0.065,0.507v3.289h-0.506V120.156z"/>
	<path d="M109.212,123.819c0-0.274,0.176-0.483,0.429-0.483c0.265,0,0.43,0.209,0.43,0.483c0,0.265-0.165,0.474-0.44,0.474
		C109.388,124.293,109.212,124.084,109.212,123.819z"/>
	<path d="M1.667,129.968h0.924v6.634H5.43v0.781H1.667V129.968z"/>
	<path d="M10.302,135.931c0,0.561,0.022,1.034,0.044,1.452H9.532l-0.055-0.771H9.456c-0.221,0.374-0.737,0.881-1.573,0.881
		c-0.869,0-1.673-0.539-1.673-2.245v-3.19h0.925v3.037c0,0.957,0.264,1.628,1.045,1.628c0.604,0,0.99-0.462,1.122-0.836
		c0.044-0.144,0.077-0.309,0.077-0.495v-3.334h0.924V135.931z"/>
	<path d="M15.934,136.635c0,1.287-0.231,1.958-0.683,2.398c-0.462,0.439-1.133,0.616-1.782,0.616c-0.583,0-1.21-0.144-1.595-0.386
		l0.231-0.715c0.308,0.188,0.803,0.363,1.386,0.363c0.902,0,1.529-0.484,1.529-1.782v-0.583h-0.022
		c-0.253,0.473-0.781,0.825-1.484,0.825c-1.211,0-2.058-1.111-2.058-2.607c0-1.849,1.089-2.806,2.178-2.806
		c0.814,0,1.243,0.44,1.464,0.836h0.021l0.044-0.737h0.814c-0.022,0.374-0.044,0.825-0.044,1.519V136.635z M15.01,134.082
		c0-0.153-0.012-0.297-0.044-0.418c-0.154-0.506-0.539-0.957-1.188-0.957c-0.825,0-1.387,0.792-1.387,2.002
		c0,1.145,0.507,1.937,1.387,1.937c0.495,0,0.968-0.297,1.166-0.924c0.055-0.165,0.066-0.341,0.066-0.506V134.082z"/>
	<path d="M20.873,136.129c0,0.439,0.012,0.891,0.077,1.254h-0.836l-0.077-0.638h-0.033c-0.274,0.406-0.78,0.748-1.463,0.748
		c-0.957,0-1.507-0.716-1.507-1.529c0-1.299,1.111-1.97,2.915-1.959v-0.132c0-0.517-0.143-1.221-1.1-1.21
		c-0.451,0-0.902,0.132-1.232,0.353l-0.209-0.628c0.374-0.241,0.968-0.429,1.595-0.429c1.452,0,1.87,0.99,1.87,2.091V136.129z
		 M19.971,134.654c-0.869-0.011-2.014,0.144-2.014,1.21c0,0.649,0.396,0.925,0.825,0.925c0.605,0,1.012-0.386,1.145-0.858
		c0.032-0.099,0.044-0.209,0.044-0.309V134.654z"/>
	<path d="M22.325,133.631c0-0.571-0.022-1.11-0.044-1.573h0.813l0.044,0.99h0.033c0.221-0.648,0.771-1.089,1.364-1.089
		c0.1,0,0.165,0,0.242,0.022v0.901c-0.077-0.021-0.165-0.021-0.275-0.021c-0.638,0-1.1,0.506-1.221,1.188
		c-0.022,0.143-0.033,0.297-0.033,0.462v2.871h-0.924V133.631z"/>
	<path d="M25.559,132.895c0-0.386,0.264-0.672,0.627-0.672c0.374,0,0.616,0.275,0.616,0.672c0,0.385-0.242,0.671-0.639,0.671
		C25.812,133.565,25.559,133.279,25.559,132.895z M25.559,136.821c0-0.385,0.264-0.671,0.627-0.671c0.374,0,0.616,0.275,0.616,0.671
		c0,0.386-0.242,0.672-0.639,0.672C25.812,137.493,25.559,137.207,25.559,136.821z"/>
	<path d="M35.581,133.62c0,2.662-1.397,3.873-2.927,3.873c-1.562,0-2.827-1.31-2.827-3.763c0-2.52,1.309-3.873,2.938-3.873
		C34.359,129.857,35.581,131.188,35.581,133.62z M30.355,133.72c0,1.595,0.77,3.333,2.343,3.333c1.584,0,2.354-1.694,2.354-3.41
		c0-1.519-0.682-3.345-2.344-3.345C31.047,130.298,30.355,132.069,30.355,133.72z"/>
	<path d="M37.031,137.383v-4.862h-0.726v-0.418h0.726v-0.353c0-1.287,0.583-2.233,1.914-2.233c0.44,0,0.902,0.165,1.111,0.341
		l-0.22,0.396c-0.198-0.144-0.572-0.297-0.979-0.297c-1.045,0-1.32,0.813-1.32,1.837v0.309h2.751v5.28h-0.506v-4.862h-2.245v4.862
		H37.031z"/>
	<path d="M45.182,137.174c-0.22,0.121-0.704,0.308-1.342,0.308c-1.375,0-2.3-1.056-2.3-2.695c0-1.605,0.99-2.794,2.465-2.794
		c0.539,0,1.001,0.154,1.188,0.286l-0.177,0.429c-0.209-0.121-0.561-0.264-1.066-0.264c-1.276,0-1.893,1.122-1.893,2.332
		c0,1.387,0.77,2.267,1.87,2.267c0.506,0,0.858-0.144,1.122-0.265L45.182,137.174z"/>
	<path d="M46.975,130.639c0,0.253-0.154,0.44-0.418,0.44c-0.221,0-0.386-0.188-0.386-0.44c0-0.242,0.176-0.439,0.407-0.439
		C46.821,130.199,46.975,130.396,46.975,130.639z M46.315,137.383v-5.28h0.506v5.28H46.315z"/>
	<path d="M48.459,133.356c0-0.539-0.022-0.848-0.044-1.254h0.473l0.033,0.868h0.021c0.253-0.55,0.848-0.979,1.617-0.979
		c0.528,0,1.65,0.297,1.65,2.079v3.312h-0.506v-3.224c0-0.902-0.297-1.728-1.287-1.728c-0.649,0-1.222,0.484-1.397,1.178
		c-0.033,0.132-0.055,0.297-0.055,0.462v3.312h-0.506V133.356z"/>
	<path d="M56.809,136.15c0,0.407,0.011,0.848,0.066,1.232h-0.463l-0.065-0.704h-0.033c-0.242,0.407-0.748,0.814-1.475,0.814
		c-0.935,0-1.44-0.693-1.44-1.452c0-1.232,1.045-1.926,2.904-1.915v-0.153c0-0.639-0.11-1.552-1.222-1.541
		c-0.396,0-0.825,0.11-1.155,0.353l-0.153-0.374c0.396-0.286,0.924-0.418,1.386-0.418c1.276,0,1.65,0.924,1.65,1.969V136.15z
		 M56.303,134.556c-0.925-0.022-2.365,0.109-2.365,1.419c0,0.771,0.462,1.089,0.957,1.089c0.748,0,1.21-0.495,1.364-1.045
		c0.032-0.11,0.044-0.231,0.044-0.319V134.556z"/>
	<path d="M58.184,136.701c0.253,0.165,0.627,0.341,1.066,0.341c0.748,0,1.134-0.43,1.134-0.99c0-0.55-0.286-0.869-0.99-1.199
		c-0.781-0.363-1.254-0.803-1.254-1.463c0-0.771,0.594-1.397,1.518-1.397c0.462,0,0.836,0.143,1.078,0.319l-0.209,0.418
		c-0.187-0.144-0.483-0.298-0.935-0.298c-0.628,0-0.957,0.419-0.957,0.881c0,0.517,0.308,0.748,0.968,1.078
		c0.748,0.341,1.287,0.77,1.287,1.573c0,0.946-0.693,1.518-1.672,1.518c-0.463,0-0.902-0.143-1.222-0.352L58.184,136.701z"/>
	<path d="M68.118,129.627v6.579c0,0.341,0.021,0.857,0.044,1.177H67.71l-0.033-0.913h-0.033c-0.241,0.528-0.792,1.023-1.649,1.023
		c-1.134,0-2.036-1.002-2.036-2.674c0-1.804,0.979-2.827,2.124-2.827c0.736,0,1.265,0.374,1.507,0.858h0.022v-3.224H68.118z
		 M67.612,134.159c0-0.132-0.012-0.308-0.045-0.451c-0.132-0.704-0.704-1.287-1.452-1.287c-1.045,0-1.639,1.045-1.639,2.354
		c0,1.188,0.506,2.288,1.606,2.288c0.615,0,1.254-0.396,1.484-1.32c0.033-0.132,0.045-0.264,0.045-0.418V134.159z"/>
	<path d="M69.867,134.644c0,1.826,0.869,2.398,1.804,2.398c0.649,0,1.013-0.132,1.276-0.275l0.121,0.396
		c-0.209,0.132-0.715,0.318-1.463,0.318c-1.408,0-2.245-1.1-2.245-2.662c0-1.738,0.892-2.827,2.135-2.827
		c1.529,0,1.849,1.519,1.849,2.332c0,0.132,0,0.22-0.012,0.319H69.867z M72.803,134.236c0.022-0.902-0.362-1.815-1.375-1.815
		c-1.001,0-1.452,0.99-1.54,1.815H72.803z"/>
	<path d="M74.564,129.627h0.506v7.756h-0.506V129.627z"/>
	<path d="M78.974,130.056c0.385-0.077,0.848-0.143,1.419-0.143c0.793,0,1.42,0.22,1.794,0.594c0.341,0.341,0.55,0.836,0.55,1.463
		c0,0.639-0.165,1.09-0.462,1.452c-0.44,0.562-1.199,0.848-2.035,0.848c-0.286,0-0.539-0.011-0.76-0.066v3.18h-0.506V130.056z
		 M79.48,133.752c0.209,0.066,0.474,0.088,0.781,0.088c1.188,0,1.959-0.615,1.959-1.826c0-1.066-0.693-1.672-1.849-1.672
		c-0.407,0-0.715,0.044-0.892,0.077V133.752z"/>
	<path d="M84.023,137.383v-7.415h0.495l2.476,4.214c0.527,0.935,0.945,1.716,1.287,2.486l0.021-0.012
		c-0.077-1.122-0.088-1.936-0.088-3.124v-3.564h0.495v7.415h-0.484l-2.464-4.225c-0.484-0.847-0.924-1.628-1.287-2.486l-0.033,0.011
		c0.066,0.979,0.077,1.782,0.077,3.136v3.564H84.023z"/>
	<path d="M90.886,129.968v4.653c0,1.761,0.781,2.432,1.738,2.432c1.09,0,1.826-0.737,1.826-2.432v-4.653h0.507v4.599
		c0,2.179-1.101,2.927-2.354,2.927c-1.166,0-2.223-0.683-2.223-2.816v-4.709H90.886z"/>
	<path d="M96.618,130.066c0.484-0.099,1.023-0.153,1.606-0.153c1.155,0,2.014,0.308,2.553,0.857
		c0.583,0.572,0.957,1.431,0.957,2.707c0,1.309-0.342,2.255-0.925,2.904c-0.594,0.682-1.584,1.056-2.805,1.056
		c-0.484,0-0.946-0.011-1.387-0.065V130.066z M97.124,136.954c0.254,0.044,0.595,0.044,0.946,0.044c1.991,0,3.136-1.134,3.136-3.487
		c0.011-1.937-0.924-3.169-3.004-3.169c-0.45,0-0.813,0.044-1.078,0.099V136.954z"/>
	<path d="M102.018,138.769c0.177-0.462,0.474-1.649,0.572-2.332l0.683-0.109c-0.198,0.824-0.672,2.079-0.848,2.387L102.018,138.769z
		"/>
	<path d="M109.863,133.697H107.2v3.245h2.993v0.44h-3.499v-7.415h3.334v0.44H107.2v2.849h2.663V133.697z"/>
	<path d="M115.022,129.627v6.579c0,0.341,0.021,0.857,0.044,1.177h-0.451l-0.033-0.913h-0.033c-0.241,0.528-0.792,1.023-1.649,1.023
		c-1.134,0-2.036-1.002-2.036-2.674c0-1.804,0.979-2.827,2.124-2.827c0.736,0,1.265,0.374,1.507,0.858h0.022v-3.224H115.022z
		 M114.516,134.159c0-0.132-0.012-0.308-0.045-0.451c-0.132-0.704-0.704-1.287-1.452-1.287c-1.045,0-1.639,1.045-1.639,2.354
		c0,1.188,0.506,2.288,1.606,2.288c0.615,0,1.254-0.396,1.484-1.32c0.033-0.132,0.045-0.264,0.045-0.418V134.159z"/>
	<path d="M117.31,130.639c0,0.253-0.154,0.44-0.419,0.44c-0.22,0-0.385-0.188-0.385-0.44c0-0.242,0.176-0.439,0.407-0.439
		C117.156,130.199,117.31,130.396,117.31,130.639z M116.65,137.383v-5.28h0.506v5.28H116.65z"/>
	<path d="M118.86,137.383v-4.862h-0.726v-0.418h0.726v-0.353c0-1.287,0.583-2.233,1.915-2.233c0.44,0,0.902,0.165,1.111,0.341
		l-0.22,0.396c-0.198-0.144-0.572-0.297-0.979-0.297c-1.045,0-1.321,0.813-1.321,1.837v0.309h2.751v5.28h-0.506v-4.862h-2.246v4.862
		H118.86z"/>
	<path d="M127.012,137.174c-0.22,0.121-0.704,0.308-1.342,0.308c-1.375,0-2.3-1.056-2.3-2.695c0-1.605,0.99-2.794,2.465-2.794
		c0.539,0,1.001,0.154,1.188,0.286l-0.177,0.429c-0.209-0.121-0.561-0.264-1.066-0.264c-1.276,0-1.893,1.122-1.893,2.332
		c0,1.387,0.77,2.267,1.87,2.267c0.506,0,0.858-0.144,1.122-0.265L127.012,137.174z"/>
	<path d="M128.805,130.639c0,0.253-0.154,0.44-0.419,0.44c-0.22,0-0.385-0.188-0.385-0.44c0-0.242,0.176-0.439,0.407-0.439
		C128.65,130.199,128.805,130.396,128.805,130.639z M128.145,137.383v-5.28h0.506v5.28H128.145z"/>
	<path d="M134.305,134.709c0,1.959-1.178,2.784-2.245,2.784c-1.188,0-2.156-0.979-2.156-2.718c0-1.849,1.067-2.783,2.233-2.783
		C133.38,131.992,134.305,132.993,134.305,134.709z M130.421,134.754c0,1.177,0.638,2.31,1.672,2.31s1.694-1.133,1.694-2.343
		c0-0.925-0.429-2.3-1.684-2.3C130.894,132.421,130.421,133.697,130.421,134.754z"/>
	<path d="M1.711,150.582v-7.415h0.495l2.476,4.214c0.527,0.935,0.945,1.716,1.287,2.486l0.021-0.012
		c-0.077-1.122-0.088-1.936-0.088-3.124v-3.564h0.495v7.415H5.914l-2.464-4.225c-0.484-0.847-0.924-1.628-1.287-2.486l-0.033,0.011
		c0.066,0.979,0.077,1.782,0.077,3.136v3.564H1.711z"/>
	<path d="M11.04,149.35c0,0.407,0.011,0.848,0.066,1.232h-0.463l-0.065-0.704h-0.033c-0.242,0.407-0.748,0.814-1.475,0.814
		c-0.935,0-1.44-0.693-1.44-1.452c0-1.232,1.045-1.926,2.904-1.915v-0.153c0-0.639-0.11-1.552-1.222-1.541
		c-0.396,0-0.825,0.11-1.155,0.353l-0.153-0.374c0.396-0.286,0.924-0.418,1.386-0.418c1.276,0,1.65,0.924,1.65,1.969V149.35z
		 M10.534,147.755c-0.925-0.022-2.365,0.109-2.365,1.419c0,0.771,0.462,1.089,0.957,1.089c0.748,0,1.21-0.495,1.364-1.045
		c0.032-0.11,0.044-0.231,0.044-0.319V147.755z"/>
	<path d="M15.879,150.373c-0.22,0.121-0.704,0.308-1.342,0.308c-1.375,0-2.3-1.056-2.3-2.695c0-1.605,0.99-2.794,2.465-2.794
		c0.539,0,1.001,0.154,1.188,0.286l-0.177,0.429c-0.209-0.121-0.561-0.264-1.066-0.264c-1.276,0-1.893,1.122-1.893,2.332
		c0,1.387,0.77,2.267,1.87,2.267c0.506,0,0.858-0.144,1.122-0.265L15.879,150.373z"/>
	<path d="M17.672,143.838c0,0.253-0.154,0.44-0.418,0.44c-0.221,0-0.386-0.188-0.386-0.44c0-0.242,0.176-0.439,0.407-0.439
		C17.518,143.398,17.672,143.596,17.672,143.838z M17.012,150.582v-5.28h0.506v5.28H17.012z"/>
	<path d="M23.172,147.908c0,1.959-1.178,2.784-2.245,2.784c-1.188,0-2.156-0.979-2.156-2.718c0-1.849,1.067-2.783,2.233-2.783
		C22.248,145.191,23.172,146.192,23.172,147.908z M19.289,147.953c0,1.177,0.638,2.31,1.672,2.31s1.694-1.133,1.694-2.343
		c0-0.925-0.429-2.3-1.684-2.3C19.761,145.62,19.289,146.896,19.289,147.953z"/>
	<path d="M24.415,146.556c0-0.539-0.022-0.848-0.044-1.254h0.473l0.033,0.868h0.021c0.253-0.55,0.848-0.979,1.617-0.979
		c0.528,0,1.65,0.297,1.65,2.079v3.312H27.66v-3.224c0-0.902-0.297-1.728-1.287-1.728c-0.649,0-1.222,0.484-1.397,1.178
		c-0.033,0.132-0.055,0.297-0.055,0.462v3.312h-0.506V146.556z"/>
	<path d="M29.893,147.843c0,1.826,0.869,2.398,1.804,2.398c0.649,0,1.013-0.132,1.276-0.275l0.121,0.396
		c-0.209,0.132-0.715,0.318-1.463,0.318c-1.408,0-2.245-1.1-2.245-2.662c0-1.738,0.892-2.827,2.135-2.827
		c1.529,0,1.849,1.519,1.849,2.332c0,0.132,0,0.22-0.012,0.319H29.893z M32.831,147.436c0.021-0.902-0.363-1.815-1.376-1.815
		c-1.001,0-1.452,0.99-1.54,1.815H32.831z"/>
	<path d="M34.381,149.9c0.253,0.165,0.627,0.341,1.066,0.341c0.748,0,1.134-0.43,1.134-0.99c0-0.55-0.286-0.869-0.99-1.199
		c-0.781-0.363-1.254-0.803-1.254-1.463c0-0.771,0.594-1.397,1.518-1.397c0.462,0,0.836,0.143,1.078,0.319l-0.209,0.418
		c-0.187-0.144-0.483-0.298-0.935-0.298c-0.628,0-0.957,0.419-0.957,0.881c0,0.517,0.308,0.748,0.968,1.078
		c0.748,0.341,1.287,0.77,1.287,1.573c0,0.946-0.693,1.518-1.672,1.518c-0.463,0-0.902-0.143-1.222-0.352L34.381,149.9z"/>
	<path d="M41.069,143.167v4.653c0,1.761,0.781,2.432,1.738,2.432c1.09,0,1.826-0.737,1.826-2.432v-4.653h0.507v4.599
		c0,2.179-1.101,2.927-2.354,2.927c-1.166,0-2.223-0.683-2.223-2.816v-4.709H41.069z"/>
	<path d="M46.779,146.556c0-0.539-0.022-0.848-0.044-1.254h0.473l0.033,0.868h0.021c0.253-0.55,0.848-0.979,1.617-0.979
		c0.528,0,1.65,0.297,1.65,2.079v3.312h-0.506v-3.224c0-0.902-0.297-1.728-1.287-1.728c-0.649,0-1.222,0.484-1.397,1.178
		c-0.033,0.132-0.055,0.297-0.055,0.462v3.312h-0.506V146.556z"/>
	<path d="M52.796,143.838c0,0.253-0.154,0.44-0.419,0.44c-0.22,0-0.385-0.188-0.385-0.44c0-0.242,0.176-0.439,0.407-0.439
		C52.642,143.398,52.796,143.596,52.796,143.838z M52.136,150.582v-5.28h0.506v5.28H52.136z"/>
	<path d="M58.054,142.826v6.579c0,0.341,0.021,0.857,0.044,1.177h-0.451l-0.033-0.913h-0.033c-0.242,0.528-0.792,1.023-1.65,1.023
		c-1.133,0-2.035-1.002-2.035-2.674c0-1.804,0.979-2.827,2.124-2.827c0.736,0,1.265,0.374,1.507,0.858h0.022v-3.224H58.054z
		 M57.548,147.358c0-0.132-0.012-0.308-0.045-0.451c-0.132-0.704-0.704-1.287-1.452-1.287c-1.045,0-1.639,1.045-1.639,2.354
		c0,1.188,0.506,2.288,1.606,2.288c0.616,0,1.254-0.396,1.484-1.32c0.033-0.132,0.045-0.264,0.045-0.418V147.358z"/>
	<path d="M62.674,149.35c0,0.407,0.011,0.848,0.066,1.232h-0.463l-0.065-0.704h-0.033c-0.242,0.407-0.748,0.814-1.475,0.814
		c-0.935,0-1.44-0.693-1.44-1.452c0-1.232,1.045-1.926,2.904-1.915v-0.153c0-0.639-0.11-1.552-1.222-1.541
		c-0.396,0-0.825,0.11-1.155,0.353l-0.153-0.374c0.396-0.286,0.924-0.418,1.386-0.418c1.276,0,1.65,0.924,1.65,1.969V149.35z
		 M62.168,147.755c-0.925-0.022-2.365,0.109-2.365,1.419c0,0.771,0.462,1.089,0.957,1.089c0.748,0,1.21-0.495,1.364-1.045
		c0.032-0.11,0.044-0.231,0.044-0.319V147.755z"/>
	<path d="M64.049,149.9c0.253,0.165,0.627,0.341,1.066,0.341c0.748,0,1.134-0.43,1.134-0.99c0-0.55-0.286-0.869-0.99-1.199
		c-0.781-0.363-1.254-0.803-1.254-1.463c0-0.771,0.594-1.397,1.518-1.397c0.462,0,0.836,0.143,1.078,0.319l-0.209,0.418
		c-0.187-0.144-0.483-0.298-0.935-0.298c-0.628,0-0.957,0.419-0.957,0.881c0,0.517,0.308,0.748,0.968,1.078
		c0.748,0.341,1.287,0.77,1.287,1.573c0,0.946-0.693,1.518-1.672,1.518c-0.463,0-0.902-0.143-1.222-0.352L64.049,149.9z"/>
	<path d="M67.327,151.968c0.177-0.462,0.474-1.649,0.572-2.332l0.683-0.109c-0.198,0.824-0.672,2.079-0.848,2.387L67.327,151.968z"
		/>
	<path d="M72.002,143.266c0.374-0.088,0.836-0.153,1.343-0.153c0.847,0,1.419,0.197,1.804,0.583
		c0.286,0.286,0.451,0.692,0.451,1.221c0,0.771-0.517,1.397-1.254,1.65v0.033c0.693,0.154,1.518,0.737,1.518,1.914
		c0,0.605-0.209,1.089-0.539,1.441c-0.462,0.495-1.221,0.682-2.134,0.682c-0.562,0-0.936-0.044-1.188-0.065V143.266z
		 M72.508,146.412H73.4c0.99,0,1.672-0.627,1.672-1.463c0-0.968-0.66-1.408-1.76-1.408c-0.407,0-0.649,0.033-0.804,0.077V146.412z
		 M72.508,150.153c0.188,0.044,0.451,0.055,0.781,0.055c1.111,0,2.047-0.473,2.047-1.684c0-1.188-0.946-1.705-2.047-1.705h-0.781
		V150.153z"/>
	<path d="M77.096,142.826h0.506v7.756h-0.506V142.826z"/>
	<path d="M79.174,145.302l1.122,3.3c0.165,0.451,0.309,0.902,0.429,1.343h0.033c0.11-0.418,0.275-0.881,0.44-1.343l1.122-3.3h0.528
		l-1.915,5.28h-0.439l-1.849-5.28H79.174z"/>
	<path d="M87.491,142.826v6.579c0,0.341,0.021,0.857,0.044,1.177h-0.451l-0.033-0.913h-0.033c-0.241,0.528-0.792,1.023-1.649,1.023
		c-1.134,0-2.036-1.002-2.036-2.674c0-1.804,0.979-2.827,2.124-2.827c0.736,0,1.265,0.374,1.507,0.858h0.022v-3.224H87.491z
		 M86.985,147.358c0-0.132-0.012-0.308-0.045-0.451c-0.132-0.704-0.704-1.287-1.452-1.287c-1.045,0-1.639,1.045-1.639,2.354
		c0,1.188,0.506,2.288,1.606,2.288c0.615,0,1.254-0.396,1.484-1.32c0.033-0.132,0.045-0.264,0.045-0.418V147.358z"/>
	<path d="M88.755,150.219c0-0.274,0.176-0.483,0.429-0.483c0.265,0,0.43,0.209,0.43,0.483c0,0.265-0.165,0.474-0.44,0.474
		C88.931,150.692,88.755,150.483,88.755,150.219z"/>
	<path d="M98.437,146.819c0,2.662-1.397,3.873-2.927,3.873c-1.562,0-2.827-1.31-2.827-3.763c0-2.52,1.309-3.873,2.938-3.873
		C97.215,143.057,98.437,144.388,98.437,146.819z M93.211,146.919c0,1.595,0.77,3.333,2.343,3.333c1.584,0,2.354-1.694,2.354-3.41
		c0-1.519-0.682-3.345-2.344-3.345C93.904,143.497,93.211,145.269,93.211,146.919z"/>
	<path d="M99.657,146.775c0-0.484-0.022-1.012-0.044-1.474h0.473l0.022,1.001h0.021c0.209-0.605,0.727-1.111,1.397-1.111
		c0.065,0,0.121,0.011,0.176,0.021v0.495c-0.055-0.011-0.121-0.011-0.198-0.011c-0.715,0-1.199,0.649-1.309,1.431
		c-0.022,0.153-0.033,0.318-0.033,0.483v2.971h-0.506V146.775z"/>
	<path d="M106.268,142.826v6.579c0,0.341,0.021,0.857,0.044,1.177h-0.451l-0.033-0.913h-0.033c-0.241,0.528-0.792,1.023-1.649,1.023
		c-1.134,0-2.036-1.002-2.036-2.674c0-1.804,0.979-2.827,2.124-2.827c0.736,0,1.265,0.374,1.507,0.858h0.022v-3.224H106.268z
		 M105.762,147.358c0-0.132-0.012-0.308-0.045-0.451c-0.132-0.704-0.704-1.287-1.452-1.287c-1.045,0-1.639,1.045-1.639,2.354
		c0,1.188,0.506,2.288,1.606,2.288c0.615,0,1.254-0.396,1.484-1.32c0.033-0.132,0.045-0.264,0.045-0.418V147.358z"/>
	<path d="M108.017,147.843c0,1.826,0.869,2.398,1.804,2.398c0.649,0,1.013-0.132,1.276-0.275l0.121,0.396
		c-0.209,0.132-0.715,0.318-1.463,0.318c-1.408,0-2.245-1.1-2.245-2.662c0-1.738,0.892-2.827,2.135-2.827
		c1.529,0,1.849,1.519,1.849,2.332c0,0.132,0,0.22-0.012,0.319H108.017z M110.954,147.436c0.022-0.902-0.362-1.815-1.375-1.815
		c-1.001,0-1.452,0.99-1.54,1.815H110.954z"/>
	<path d="M112.713,146.556c0-0.539-0.022-0.848-0.044-1.254h0.473l0.033,0.868h0.021c0.253-0.55,0.848-0.979,1.617-0.979
		c0.528,0,1.65,0.297,1.65,2.079v3.312h-0.506v-3.224c0-0.902-0.297-1.728-1.287-1.728c-0.649,0-1.222,0.484-1.397,1.178
		c-0.033,0.132-0.055,0.297-0.055,0.462v3.312h-0.506V146.556z"/>
	<path d="M124.045,142.826v6.579c0,0.341,0.021,0.857,0.044,1.177h-0.451l-0.033-0.913h-0.033c-0.242,0.528-0.792,1.023-1.65,1.023
		c-1.133,0-2.036-1.002-2.036-2.674c0-1.804,0.98-2.827,2.125-2.827c0.736,0,1.265,0.374,1.507,0.858h0.022v-3.224H124.045z
		 M123.539,147.358c0-0.132-0.012-0.308-0.045-0.451c-0.132-0.704-0.704-1.287-1.452-1.287c-1.045,0-1.639,1.045-1.639,2.354
		c0,1.188,0.506,2.288,1.606,2.288c0.616,0,1.254-0.396,1.484-1.32c0.033-0.132,0.045-0.264,0.045-0.418V147.358z"/>
	<path d="M125.794,147.843c0,1.826,0.869,2.398,1.804,2.398c0.649,0,1.013-0.132,1.276-0.275l0.121,0.396
		c-0.209,0.132-0.715,0.318-1.463,0.318c-1.408,0-2.245-1.1-2.245-2.662c0-1.738,0.892-2.827,2.135-2.827
		c1.529,0,1.849,1.519,1.849,2.332c0,0.132,0,0.22-0.012,0.319H125.794z M128.731,147.436c0.021-0.902-0.363-1.815-1.376-1.815
		c-1.001,0-1.452,0.99-1.54,1.815H128.731z"/>
	<path d="M7.421,160.251c-0.066-1.122-0.144-2.432-0.121-3.257H7.256c-0.242,0.814-0.506,1.684-0.892,2.772l-1.419,4.016H4.626
		l-1.331-3.895c-0.396-1.155-0.682-2.058-0.88-2.894H2.382c-0.011,0.88-0.065,2.123-0.143,3.355l-0.198,3.433H1.536l0.495-7.415
		h0.583l1.43,4.137c0.319,0.968,0.562,1.683,0.76,2.442h0.032c0.177-0.737,0.407-1.431,0.76-2.432l1.452-4.147h0.616l0.473,7.415
		H7.63L7.421,160.251z"/>
	<path d="M12.634,162.55c0,0.407,0.011,0.848,0.065,1.232h-0.462l-0.065-0.704h-0.033c-0.242,0.407-0.748,0.814-1.475,0.814
		c-0.935,0-1.44-0.693-1.44-1.452c0-1.232,1.045-1.926,2.904-1.915v-0.153c0-0.639-0.11-1.552-1.222-1.541
		c-0.396,0-0.825,0.11-1.155,0.353l-0.153-0.374c0.396-0.286,0.924-0.418,1.386-0.418c1.276,0,1.65,0.924,1.65,1.969V162.55z
		 M12.128,160.955c-0.925-0.022-2.365,0.109-2.365,1.419c0,0.771,0.462,1.089,0.957,1.089c0.748,0,1.21-0.495,1.364-1.045
		c0.032-0.11,0.044-0.231,0.044-0.319V160.955z"/>
	<path d="M14.218,156.026h0.506v7.756h-0.506V156.026z"/>
	<path d="M17.099,157.347v1.154h1.354v0.419h-1.354v3.477c0,0.692,0.221,1.045,0.716,1.045c0.23,0,0.396-0.022,0.506-0.066
		l0.065,0.396c-0.153,0.065-0.362,0.109-0.648,0.109c-0.363,0-0.66-0.109-0.848-0.352c-0.22-0.264-0.297-0.671-0.297-1.243v-3.366
		h-0.825v-0.419h0.825v-0.945L17.099,157.347z"/>
	<path d="M22.5,162.55c0,0.407,0.011,0.848,0.066,1.232h-0.463l-0.065-0.704h-0.033c-0.242,0.407-0.748,0.814-1.475,0.814
		c-0.935,0-1.44-0.693-1.44-1.452c0-1.232,1.045-1.926,2.904-1.915v-0.153c0-0.639-0.11-1.552-1.222-1.541
		c-0.396,0-0.825,0.11-1.155,0.353l-0.153-0.374c0.396-0.286,0.924-0.418,1.386-0.418c1.276,0,1.65,0.924,1.65,1.969V162.55z
		 M21.995,160.955c-0.925-0.022-2.365,0.109-2.365,1.419c0,0.771,0.462,1.089,0.957,1.089c0.748,0,1.21-0.495,1.364-1.045
		c0.032-0.11,0.044-0.231,0.044-0.319V160.955z"/>
	<path d="M26.086,163.012c0.363,0.242,0.891,0.43,1.43,0.43c1.023,0,1.662-0.616,1.662-1.529c0-0.814-0.43-1.31-1.354-1.738
		c-0.924-0.385-1.749-1.001-1.749-2.047c0-1.089,0.857-1.858,2.023-1.858c0.628,0,1.101,0.176,1.32,0.33l-0.197,0.429
		c-0.188-0.132-0.616-0.319-1.167-0.319c-1.078,0-1.474,0.737-1.474,1.32c0,0.848,0.473,1.232,1.419,1.684
		c1.101,0.539,1.684,1.122,1.684,2.156c0,1.111-0.792,2.013-2.2,2.013c-0.583,0-1.255-0.197-1.585-0.45L26.086,163.012z"/>
	<path d="M34.645,162.484c0,0.506,0.022,0.913,0.044,1.298h-0.473l-0.033-0.825h-0.022c-0.22,0.407-0.759,0.936-1.595,0.936
		c-0.727,0-1.617-0.44-1.617-2.212v-3.18h0.506v3.081c0,1.078,0.286,1.87,1.232,1.87c0.737,0,1.21-0.572,1.375-1.023
		c0.044-0.165,0.077-0.362,0.077-0.561v-3.367h0.506V162.484z"/>
	<path d="M36.273,159.976c0-0.484-0.022-1.012-0.044-1.475h0.473l0.022,1.002h0.021c0.209-0.605,0.727-1.111,1.397-1.111
		c0.065,0,0.121,0.011,0.176,0.021v0.495c-0.055-0.011-0.121-0.011-0.198-0.011c-0.715,0-1.199,0.649-1.309,1.431
		c-0.022,0.153-0.033,0.318-0.033,0.483v2.971h-0.506V159.976z"/>
	<path d="M38.165,165.168c0.177-0.462,0.474-1.649,0.572-2.332l0.683-0.11c-0.198,0.825-0.672,2.08-0.848,2.388L38.165,165.168z"/>
	<path d="M42.83,163.782v-7.415h0.495l2.476,4.214c0.527,0.935,0.945,1.716,1.287,2.486l0.021-0.012
		c-0.077-1.122-0.088-1.936-0.088-3.124v-3.564h0.495v7.415h-0.484l-2.464-4.225c-0.484-0.847-0.924-1.628-1.287-2.486l-0.033,0.011
		c0.066,0.979,0.077,1.782,0.077,3.136v3.564H42.83z"/>
	<path d="M53.181,161.108c0,1.959-1.178,2.784-2.245,2.784c-1.188,0-2.156-0.979-2.156-2.718c0-1.849,1.067-2.783,2.233-2.783
		C52.256,158.392,53.181,159.393,53.181,161.108z M49.297,161.153c0,1.177,0.638,2.31,1.672,2.31s1.694-1.133,1.694-2.343
		c0-0.925-0.429-2.3-1.684-2.3C49.77,158.82,49.297,160.097,49.297,161.153z"/>
	<path d="M53.928,163.419c0-0.274,0.176-0.483,0.429-0.483c0.265,0,0.43,0.209,0.43,0.483c0,0.265-0.165,0.474-0.44,0.474
		C54.104,163.893,53.928,163.684,53.928,163.419z"/>
	<path d="M57.921,163.782v-0.319l0.616-0.704c1.64-1.716,2.597-2.894,2.597-4.213c0-0.848-0.353-1.573-1.408-1.573
		c-0.649,0-1.111,0.341-1.364,0.561l-0.209-0.363c0.385-0.352,0.957-0.648,1.672-0.648c1.32,0,1.826,1.012,1.826,1.947
		c0,1.386-0.979,2.607-2.508,4.257l-0.506,0.595v0.021h3.201v0.44H57.921z"/>
	<path d="M65.314,160.603v0.451h-2.597v-0.451H65.314z"/>
	<path d="M66.479,156.466c0.374-0.088,0.836-0.153,1.343-0.153c0.847,0,1.419,0.197,1.804,0.583
		c0.286,0.286,0.451,0.692,0.451,1.221c0,0.771-0.517,1.397-1.254,1.65v0.033c0.693,0.154,1.518,0.737,1.518,1.914
		c0,0.605-0.209,1.089-0.539,1.441c-0.462,0.495-1.221,0.682-2.134,0.682c-0.562,0-0.936-0.044-1.188-0.065V156.466z
		 M66.985,159.612h0.892c0.99,0,1.672-0.627,1.672-1.463c0-0.968-0.66-1.408-1.76-1.408c-0.407,0-0.649,0.033-0.804,0.077V159.612z
		 M66.985,163.354c0.188,0.044,0.451,0.055,0.781,0.055c1.111,0,2.047-0.473,2.047-1.684c0-1.188-0.946-1.705-2.047-1.705h-0.781
		V163.354z"/>
	<path d="M70.89,165.168c0.177-0.462,0.474-1.649,0.572-2.332l0.683-0.11c-0.198,0.825-0.672,2.08-0.848,2.388L70.89,165.168z"/>
	<path d="M75.346,163.012c0.363,0.242,0.891,0.43,1.43,0.43c1.023,0,1.662-0.616,1.662-1.529c0-0.814-0.43-1.31-1.354-1.738
		c-0.924-0.385-1.749-1.001-1.749-2.047c0-1.089,0.857-1.858,2.023-1.858c0.628,0,1.101,0.176,1.32,0.33l-0.197,0.429
		c-0.188-0.132-0.616-0.319-1.167-0.319c-1.078,0-1.474,0.737-1.474,1.32c0,0.848,0.473,1.232,1.419,1.684
		c1.101,0.539,1.684,1.122,1.684,2.156c0,1.111-0.792,2.013-2.2,2.013c-0.583,0-1.255-0.197-1.585-0.45L75.346,163.012z"/>
	<path d="M83.234,162.55c0,0.407,0.011,0.848,0.065,1.232h-0.462l-0.065-0.704h-0.033c-0.242,0.407-0.748,0.814-1.475,0.814
		c-0.935,0-1.44-0.693-1.44-1.452c0-1.232,1.045-1.926,2.904-1.915v-0.153c0-0.639-0.11-1.552-1.222-1.541
		c-0.396,0-0.825,0.11-1.155,0.353l-0.153-0.374c0.396-0.286,0.924-0.418,1.386-0.418c1.276,0,1.65,0.924,1.65,1.969V162.55z
		 M82.728,160.955c-0.925-0.022-2.365,0.109-2.365,1.419c0,0.771,0.462,1.089,0.957,1.089c0.748,0,1.21-0.495,1.364-1.045
		c0.032-0.11,0.044-0.231,0.044-0.319V160.955z"/>
	<path d="M84.818,159.756c0-0.539-0.022-0.848-0.044-1.255h0.473l0.033,0.869h0.021c0.253-0.55,0.848-0.979,1.617-0.979
		c0.528,0,1.65,0.297,1.65,2.079v3.312h-0.506v-3.224c0-0.902-0.297-1.728-1.287-1.728c-0.649,0-1.222,0.484-1.397,1.178
		c-0.033,0.132-0.055,0.297-0.055,0.462v3.312h-0.506V159.756z"/>
	<path d="M90.824,157.347v1.154h1.354v0.419h-1.354v3.477c0,0.692,0.221,1.045,0.716,1.045c0.23,0,0.396-0.022,0.506-0.066
		l0.065,0.396c-0.153,0.065-0.362,0.109-0.648,0.109c-0.363,0-0.66-0.109-0.848-0.352c-0.22-0.264-0.297-0.671-0.297-1.243v-3.366
		h-0.825v-0.419h0.825v-0.945L90.824,157.347z"/>
	<path d="M96.225,162.55c0,0.407,0.011,0.848,0.066,1.232h-0.463l-0.065-0.704H95.73c-0.242,0.407-0.748,0.814-1.475,0.814
		c-0.935,0-1.44-0.693-1.44-1.452c0-1.232,1.045-1.926,2.904-1.915v-0.153c0-0.639-0.11-1.552-1.222-1.541
		c-0.396,0-0.825,0.11-1.155,0.353l-0.153-0.374c0.396-0.286,0.924-0.418,1.386-0.418c1.276,0,1.65,0.924,1.65,1.969V162.55z
		 M95.719,160.955c-0.925-0.022-2.365,0.109-2.365,1.419c0,0.771,0.462,1.089,0.957,1.089c0.748,0,1.21-0.495,1.364-1.045
		c0.032-0.11,0.044-0.231,0.044-0.319V160.955z"/>
	<path d="M103.2,160.097h-2.663v3.245h2.993v0.44h-3.499v-7.415h3.334v0.44h-2.828v2.849h2.663V160.097z"/>
	<path d="M104.618,156.026h0.506v7.756h-0.506V156.026z"/>
	<path d="M106.927,161.043c0,1.826,0.869,2.398,1.804,2.398c0.649,0,1.013-0.132,1.276-0.275l0.121,0.396
		c-0.209,0.132-0.715,0.318-1.463,0.318c-1.408,0-2.245-1.1-2.245-2.662c0-1.738,0.892-2.827,2.135-2.827
		c1.529,0,1.849,1.518,1.849,2.332c0,0.132,0,0.22-0.012,0.319H106.927z M109.864,160.636c0.022-0.902-0.362-1.815-1.375-1.815
		c-1.001,0-1.452,0.99-1.54,1.815H109.864z"/>
	<path d="M111.625,159.756c0-0.539-0.022-0.848-0.044-1.255h0.473l0.033,0.869h0.021c0.253-0.55,0.848-0.979,1.617-0.979
		c0.528,0,1.65,0.297,1.65,2.079v3.312h-0.506v-3.224c0-0.902-0.297-1.728-1.287-1.728c-0.649,0-1.222,0.484-1.397,1.178
		c-0.033,0.132-0.055,0.297-0.055,0.462v3.312h-0.506V159.756z"/>
	<path d="M119.974,162.55c0,0.407,0.011,0.848,0.066,1.232h-0.462l-0.065-0.704h-0.033c-0.242,0.407-0.748,0.814-1.475,0.814
		c-0.935,0-1.44-0.693-1.44-1.452c0-1.232,1.045-1.926,2.904-1.915v-0.153c0-0.639-0.11-1.552-1.222-1.541
		c-0.396,0-0.825,0.11-1.155,0.353l-0.153-0.374c0.396-0.286,0.924-0.418,1.386-0.418c1.276,0,1.65,0.924,1.65,1.969V162.55z
		 M119.468,160.955c-0.925-0.022-2.365,0.109-2.365,1.419c0,0.771,0.462,1.089,0.957,1.089c0.748,0,1.21-0.495,1.364-1.045
		c0.032-0.11,0.044-0.231,0.044-0.319V160.955z"/>
</g>
<linearGradient id="SVGID_1_" gradientUnits="userSpaceOnUse" x1="0" y1="37.1375" x2="238.5291" y2="37.1375">
	<stop  offset="0" style="stop-color:#58595B"/>
	<stop  offset="0.2479" style="stop-color:#A7A9AC"/>
	<stop  offset="0.5114" style="stop-color:#808285"/>
	<stop  offset="0.7069" style="stop-color:#D1D3D4"/>
	<stop  offset="0.8765" style="stop-color:#939598"/>
	<stop  offset="1" style="stop-color:#6D6E71"/>
</linearGradient>
<line class="st2" x1="0" y1="37.138" x2="238.529" y2="37.138"/>
</svg>